<?xml version="1.0" encoding="UTF-8" standalone="no"?>
<!DOCTYPE svg PUBLIC "-//W3C//DTD SVG 1.1//EN" "http://www.w3.org/Graphics/SVG/1.1/DTD/svg11.dtd">
<svg version="1.1" xmlns="http://www.w3.org/2000/svg" xmlns:xlink="http://www.w3.org/1999/xlink" preserveAspectRatio="xMidYMid meet" viewBox="0 0 650 400" width="650" height="400"><defs><path d="M351.97 406.98C162.75 406.98 9.37 398.15 9.37 387.27C9.37 376.39 162.75 367.57 351.97 367.57C541.18 367.57 694.57 376.39 694.57 387.27C694.57 398.15 541.18 406.98 351.97 406.98Z" id="ezSzOPofr"></path><path d="M629.49 13.21C629.49 13.21 629.49 13.21 629.49 13.21C629.49 14.85 629.49 27.95 629.49 29.59C629.49 29.59 629.49 29.59 629.49 29.59C578.02 29.59 166.28 29.59 114.81 29.59C114.81 29.59 114.81 29.59 114.81 29.59C114.81 27.95 114.81 14.85 114.81 13.21C114.81 13.21 114.81 13.21 114.81 13.21C217.74 13.21 578.02 13.21 629.49 13.21Z" id="a5wfyrYR0T"></path><path d="M132.25 24.8C129.91 24.8 128.01 22.91 128.01 20.57C128.01 18.22 129.91 16.33 132.25 16.33C134.59 16.33 136.49 18.22 136.49 20.57C136.49 22.91 134.59 24.8 132.25 24.8Z" id="b3qRmbArJt"></path><path d="M147.37 24.8C145.03 24.8 143.13 22.91 143.13 20.57C143.13 18.22 145.03 16.33 147.37 16.33C149.71 16.33 151.6 18.22 151.6 20.57C151.6 22.91 149.71 24.8 147.37 24.8Z" id="cgaCA54jU"></path><path d="M159.86 24.8C157.52 24.8 155.62 22.91 155.62 20.57C155.62 18.22 157.52 16.33 159.86 16.33C162.2 16.33 164.1 18.22 164.1 20.57C164.1 22.91 162.2 24.8 159.86 24.8Z" id="bS1m3siNZ"></path><path d="M118.48 272.01L118.48 382.47L633.16 382.47L633.16 188.45L627.03 188.91L118.84 271.7L118.84 271.7L118.48 272.01Z" id="cqpIUnjd2"></path><path d="M299.35 122.15C299.35 122.15 299.35 122.15 299.35 122.15C299.35 122.73 299.35 127.37 299.35 127.95C299.35 127.95 299.35 127.95 299.35 127.95C284.98 127.95 170 127.95 155.62 127.95C155.62 127.95 155.62 127.95 155.62 127.95C155.62 127.37 155.62 122.73 155.62 122.15C155.62 122.15 155.62 122.15 155.62 122.15C184.37 122.15 284.98 122.15 299.35 122.15Z" id="e19TuNBr7A"></path><path d="M299.35 134.9C299.35 134.9 299.35 134.9 299.35 134.9C299.35 135.48 299.35 140.12 299.35 140.7C299.35 140.7 299.35 140.7 299.35 140.7C284.98 140.7 170 140.7 155.62 140.7C155.62 140.7 155.62 140.7 155.62 140.7C155.62 140.12 155.62 135.48 155.62 134.9C155.62 134.9 155.62 134.9 155.62 134.9C184.37 134.9 284.98 134.9 299.35 134.9Z" id="an8iETpF7"></path><path d="M204.3 147.65C204.3 147.65 204.3 147.65 204.3 147.65C204.3 148.23 204.3 152.87 204.3 153.45C204.3 153.45 204.3 153.45 204.3 153.45C199.44 153.45 160.49 153.45 155.62 153.45C155.62 153.45 155.62 153.45 155.62 153.45C155.62 152.87 155.62 148.23 155.62 147.65C155.62 147.65 155.62 147.65 155.62 147.65C165.36 147.65 199.44 147.65 204.3 147.65Z" id="afnGPH9DY"></path><path d="M592.45 283.05C592.45 283.05 592.45 283.05 592.45 283.05C592.45 283.62 592.45 288.26 592.45 288.84C592.45 288.84 592.45 288.84 592.45 288.84C578.08 288.84 463.1 288.84 448.72 288.84C448.72 288.84 448.72 288.84 448.72 288.84C448.72 288.26 448.72 283.62 448.72 283.05C448.72 283.05 448.72 283.05 448.72 283.05C477.47 283.05 578.08 283.05 592.45 283.05Z" id="bXdkzu23U"></path><path d="M592.45 295.79C592.45 295.79 592.45 295.79 592.45 295.79C592.45 296.37 592.45 301.01 592.45 301.59C592.45 301.59 592.45 301.59 592.45 301.59C578.08 301.59 463.1 301.59 448.72 301.59C448.72 301.59 448.72 301.59 448.72 301.59C448.72 301.01 448.72 296.37 448.72 295.79C448.72 295.79 448.72 295.79 448.72 295.79C477.47 295.79 578.08 295.79 592.45 295.79Z" id="c5UCDi8xv"></path><path d="M497.4 308.54C497.4 308.54 497.4 308.54 497.4 308.54C497.4 309.12 497.4 313.76 497.4 314.34C497.4 314.34 497.4 314.34 497.4 314.34C492.54 314.34 453.59 314.34 448.72 314.34C448.72 314.34 448.72 314.34 448.72 314.34C448.72 313.76 448.72 309.12 448.72 308.54C448.72 308.54 448.72 308.54 448.72 308.54C458.46 308.54 492.54 308.54 497.4 308.54Z" id="i101rk0oWR"></path><path d="M359.43 377.02C356.3 377.02 353.77 374.49 353.77 371.37C353.77 368.24 356.3 365.71 359.43 365.71C362.55 365.71 365.08 368.24 365.08 371.37C365.08 374.49 362.55 377.02 359.43 377.02Z" id="bCdZVockZ"></path><path d="M375.82 377.59C372.7 377.59 370.17 375.05 370.17 371.93C370.17 368.81 372.7 366.28 375.82 366.28C378.94 366.28 381.47 368.81 381.47 371.93C381.47 375.05 378.94 377.59 375.82 377.59Z" id="e7jbuyUgU"></path><path d="M392.22 378.15C389.09 378.15 386.56 375.62 386.56 372.5C386.56 369.38 389.09 366.84 392.22 366.84C395.34 366.84 397.87 369.38 397.87 372.5C397.87 375.62 395.34 378.15 392.22 378.15Z" id="bzARxmmq8"></path><path d="M375.87 376.46C373.37 376.46 371.35 374.43 371.35 371.93C371.35 369.43 373.37 367.41 375.87 367.41C378.37 367.41 380.4 369.43 380.4 371.93C380.4 374.43 378.37 376.46 375.87 376.46Z" id="fpkgSoMYB"></path><path d="M251.7 188.49C251.7 188.49 251.7 188.49 251.7 188.49C251.7 189.6 251.7 198.48 251.7 199.59C251.7 199.59 251.7 199.59 251.7 199.59C246.83 199.59 207.89 199.59 203.02 199.59C203.02 199.59 203.02 199.59 203.02 199.59C203.02 198.48 203.02 189.6 203.02 188.49C203.02 188.49 203.02 188.49 203.02 188.49C212.75 188.49 246.83 188.49 251.7 188.49Z" id="a3aAMmqpNk"></path><path d="M541.06 338.78C541.06 338.78 541.06 338.78 541.06 338.78C541.06 339.89 541.06 348.78 541.06 349.89C541.06 349.89 541.06 349.89 541.06 349.89C536.19 349.89 497.24 349.89 492.38 349.89C492.38 349.89 492.38 349.89 492.38 349.89C492.38 348.78 492.38 339.89 492.38 338.78C492.38 338.78 492.38 338.78 492.38 338.78C502.11 338.78 536.19 338.78 541.06 338.78Z" id="buVt5UG7f"></path><path d="M227.63 227.78C209.03 227.78 193.96 212.7 193.96 194.1C193.96 175.5 209.03 160.43 227.63 160.43C246.23 160.43 261.31 175.5 261.31 194.1C261.31 212.7 246.23 227.78 227.63 227.78Z" id="adkhFUDF5"></path><path d="M227.63 216.55C215.23 216.55 205.18 206.5 205.18 194.1C205.18 181.7 215.23 171.65 227.63 171.65C240.03 171.65 250.08 181.7 250.08 194.1C250.08 206.5 240.03 216.55 227.63 216.55Z" id="b15mpJ7Ls"></path><path d="M227.49 209.69C218.88 209.69 211.9 202.71 211.9 194.1C211.9 185.49 218.88 178.51 227.49 178.51C236.1 178.51 243.08 185.49 243.08 194.1C243.08 202.71 236.1 209.69 227.49 209.69Z" id="b1QhAM5Ec"></path><path d="M510.99 144.32C492.39 144.32 477.31 129.24 477.31 110.64C477.31 92.04 492.39 76.97 510.99 76.97C529.59 76.97 544.66 92.04 544.66 110.64C544.66 129.24 529.59 144.32 510.99 144.32Z" id="e1roz10Lw"></path><path d="M107.3 335.48C107.3 335.48 104.54 333.65 97.16 333.48C93.18 333.39 93.42 334.56 91.83 340.98C91.11 343.93 86.96 353.64 87.26 354.76C87.26 354.76 99.96 357.54 99.96 357.54C99.32 355.11 107.94 337.91 107.3 335.48Z" id="l1aCZeVmfo"></path><path d="M510.99 133.09C498.59 133.09 488.54 123.04 488.54 110.64C488.54 98.24 498.59 88.19 510.99 88.19C523.39 88.19 533.44 98.24 533.44 110.64C533.44 123.04 523.39 133.09 510.99 133.09Z" id="ahJ9H6yDd"></path><path d="M510.99 126.23C502.38 126.23 495.4 119.25 495.4 110.64C495.4 102.03 502.38 95.05 510.99 95.05C519.6 95.05 526.58 102.03 526.58 110.64C526.58 119.25 519.6 126.23 510.99 126.23Z" id="a258hfZ5L2"></path><path d="M51.92 345.62C51.92 345.62 55 345.02 61.51 347.55C65.02 348.91 64.39 349.85 63.45 356.03C63.02 358.88 63.11 368.87 62.45 369.75C62.45 369.75 50.34 367.57 50.34 367.57C51.78 365.67 50.48 347.51 51.92 345.62Z" id="b3OM6Ej4sq"></path><path d="M516.99 378.07C498.39 378.07 483.32 362.99 483.32 344.39C483.32 325.79 498.39 310.72 516.99 310.72C535.59 310.72 550.67 325.79 550.67 344.39C550.67 362.99 535.59 378.07 516.99 378.07Z" id="d69XUMjKGN"></path><path d="M516.99 366.84C504.59 366.84 494.54 356.79 494.54 344.39C494.54 331.99 504.59 321.94 516.99 321.94C529.39 321.94 539.44 331.99 539.44 344.39C539.44 356.79 529.39 366.84 516.99 366.84Z" id="gBACgOmD"></path><path d="M516.72 361.15C508.11 361.15 501.13 354.17 501.13 345.56C501.13 336.95 508.11 329.97 516.72 329.97C525.33 329.97 532.31 336.95 532.31 345.56C532.31 354.17 525.33 361.15 516.72 361.15Z" id="c2oogrVewI"></path><path d="M65.44 80.82C65.44 80.82 65.44 80.82 65.44 80.82C65.51 79.04 66.07 64.78 66.14 63C66.14 63 66.14 63 66.14 63C67.52 63.05 78.61 63.48 80 63.54C80 63.54 80 63.54 80 63.54C79.93 65.32 79.37 79.57 79.3 81.36C79.3 81.36 79.3 81.36 79.3 81.36C76.53 81.25 66.83 80.87 65.44 80.82Z" id="b94i9f8sy"></path><path d="M128.48 125.36C128.48 125.36 147.67 116.19 147.36 124.11C147.36 124.11 128.01 137.24 128.01 137.24C128.11 134.86 128.38 127.73 128.48 125.36Z" id="fRR8jVuUD"></path><path d="M124.86 229.25C128.21 245.24 136.3 268.59 129.75 284.2C123.2 299.81 107.23 337.35 107.04 342.3C106.84 347.25 109.91 350.04 105.95 349.89C101.99 349.73 88.48 344.52 87.6 341.51C86.73 338.5 87.6 335.56 87.6 335.56C88.96 331.31 95.44 309.54 107.04 270.23L84.76 234.76L69.47 279.83C67.67 329.36 66.67 356.7 66.47 361.85C66.47 361.85 49.38 357.97 47.24 361.85C47.24 361.85 46.59 334.02 45.75 330.02C44.92 326.02 42.7 254.49 42.7 254.49C42.7 254.49 31.84 193.04 42.73 193.47C53.62 193.89 92.28 163.7 114.13 188.34C116.61 195.97 121.52 213.25 124.86 229.25Z" id="dIkC9DavZ"></path><path d="M103.24 353.81C103.24 353.81 110.87 370.67 111.59 371.45C111.59 371.45 117.28 379.95 113.52 379.8C113.52 379.8 100.89 375.55 94.36 369.27C94.36 369.27 79.21 352.12 79.99 351.4C79.99 351.4 86.12 348.63 86.12 348.63C89.54 349.66 99.81 352.77 103.24 353.81Z" id="e1b7Lcxc1M"></path><path d="M67.12 382.8C67.12 382.8 68.72 392.77 63.77 392.58C63.77 392.58 46.02 389.91 46.02 389.91C46.02 389.91 45.26 383.93 46.29 382.98C46.29 382.98 51.7 371.29 49.84 368.25C47.97 365.2 64.69 368.82 64.69 368.82C65.17 371.62 65.29 378.76 67.12 382.8Z" id="d2G2weChdV"></path><path d="M42.7 66.55C42.7 66.55 50.16 78.74 50.16 78.74C52.23 79.02 68.8 81.25 70.87 81.53C70.87 81.53 70.61 62.68 71.68 60.73C72.74 58.79 57.36 46.3 57.36 46.3C54.43 50.35 46.81 62.74 42.7 66.55Z" id="d3TcWZo8gB"></path><path d="M75.37 67.82C75.37 67.82 71.1 75.58 67.14 75.43C67.14 75.43 42.7 66.55 41.82 63.54C41.82 63.54 35.04 85.09 35.04 85.09C38.38 90.97 55.09 120.37 85.16 173.3L97.38 164.85L91.46 113.06L86.6 85.11C80.61 75.89 76.86 70.12 75.37 67.82Z" id="aHQbVZAzb"></path><path d="M43.05 159.77C43.04 159.96 43.03 160.16 43.02 160.36C42.54 169.52 39.17 180.12 37.95 187.83C37.08 193.36 37.33 197.39 40.56 198.34C48.4 200.63 39.42 202.26 69.76 212.36C100.11 222.46 105.4 213.74 105.48 211.76C105.56 209.78 101.18 194.74 102.21 193.79C103.24 192.84 116.6 206.25 120.64 204.42C124.67 202.59 121.1 192.54 121.1 192.54C121.1 192.54 112 171.36 112.2 166.41C112.39 161.46 98.42 138.12 98.42 138.12C97.47 131.93 89.87 82.46 88.92 76.28C88.92 76.28 85.27 68.2 80.36 67.02C80.36 67.02 71.37 68.65 71.37 68.65C71.92 69.87 74.66 75.92 79.59 86.82L88.26 118.89C87.39 125.99 86.91 129.94 86.81 130.73C86.81 130.73 76.73 109.51 70.1 101.33C70.1 101.33 49.36 73.75 49.36 73.75C49.36 73.75 46.06 62.63 48.55 59.3C51.04 55.97 38.17 55.47 32.68 69.14C29.77 76.38 25.05 87.18 22.09 97.24C19.46 106.15 18.21 114.48 20.82 119.24C24.81 126.52 34.85 136.08 39.97 146.76C41.97 150.94 43.22 155.3 43.05 159.77Z" id="bcafsCZ99"></path><path d="M39.97 146.76C41.31 141.94 42.94 136.96 42.94 136.96C42.94 136.96 49.2 103.49 30.69 94.84C27.63 94.54 24.56 95.4 22.09 97.24C19.46 106.15 18.21 114.48 20.82 119.24C24.81 126.52 34.85 136.08 39.97 146.76Z" id="kYA6pctmZ"></path><path d="M109.96 121.71L131.74 122.55L133.98 141.48C112.51 143.03 100.58 143.89 98.19 144.06C98.19 144.06 89.25 118.92 94.28 117.14C96.37 117.75 101.6 119.27 109.96 121.71Z" id="j1eCpowjlc"></path><path d="M68.7 180.77C68.7 180.77 89.68 184.25 84.89 190.57C84.89 190.57 61.51 190.24 61.51 190.24C62.95 188.35 67.26 182.66 68.7 180.77Z" id="b5YegDfSk8"></path><path d="M37.95 187.83C44.64 194.15 51 199.74 53.39 199.83C58.34 200.02 66.3 199.34 69.23 200.44C72.16 201.55 73.88 182.78 73.88 182.78C73.88 182.78 72.13 176.76 64.33 173.48C59.06 171.26 48.96 165.25 43.02 160.36C42.54 169.52 39.17 180.12 37.95 187.83Z" id="fgcT6C4zQ"></path><path d="M15.41 113.66C15.41 113.66 13.64 159.2 20.38 164.42C20.38 164.42 49.01 193.29 53.96 193.49C53.96 193.49 66.87 193 69.8 194.1C69.8 194.1 74.45 176.43 74.45 176.43C74.45 176.43 72.7 170.42 64.89 167.14C57.09 163.86 38.7 152.24 38.85 148.28C39.01 144.32 43.51 130.62 43.51 130.62C43.51 130.62 49.76 97.15 31.26 88.5C28.09 93.53 14.5 85.86 15.41 113.66Z" id="b2zDAUpjXz"></path><path d="M72.14 70.65C60.1 70.65 50.34 60.89 50.34 48.85C50.34 36.82 60.1 27.06 72.14 27.06C84.18 27.06 93.93 36.82 93.93 48.85C93.93 60.89 84.18 70.65 72.14 70.65Z" id="b4aAuxQjj"></path><path d="M88.65 18.53C89.35 18.66 90.03 18.19 90.16 17.48C90.66 18.52 91.22 19.62 92.24 20.15C93.26 20.68 94.83 20.24 94.98 19.1C95.13 19.96 95.51 20.77 96.09 21.43C96.72 22.03 97.86 22.19 98.42 21.51C97.97 23.95 98.24 26.45 98.1 28.93C97.96 31.4 97.31 34.02 95.44 35.65C92.71 38.02 88.61 37.43 85.03 36.98C84.49 36.87 83.92 36.9 83.4 37.07C82.06 37.65 82.12 39.51 82.1 40.97C81.87 46.26 77.86 50.61 72.61 51.26C71.19 51.48 69.74 51.13 68.58 50.28C67.56 49.41 67.04 48.01 65.87 47.36C63.97 46.3 61.67 47.84 60.29 49.51C58.9 51.18 57.53 53.23 55.38 53.54C52.54 53.94 50.38 51.05 49.32 48.38C46.36 40.83 46.57 32.4 49.91 25.01C55.85 12.08 76.12 10.03 86.81 17.61C87.34 18.07 87.97 18.38 88.65 18.53Z" id="c1apHX8RrD"></path><path d="M633.21 382.47C633.21 382.47 636.24 366.43 628.57 353.34C620.89 340.25 605.41 335.06 605.41 335.06C605.41 335.06 602.37 351.1 610.05 364.2C617.73 377.29 628.58 378.81 633.21 382.47Z" id="aRG29Jnko"></path><path d="M633.68 382.33C633.68 382.33 617.71 385.76 604.44 378.41C591.16 371.05 585.6 355.7 585.6 355.7C585.6 355.7 601.56 352.27 614.84 359.63C628.11 366.98 629.91 377.79 633.68 382.33Z" id="a25QsbW3Cp"></path><path d="M592.45 238.96C592.45 238.96 592.45 238.96 592.45 238.96C592.45 239.54 592.45 244.17 592.45 244.75C592.45 244.75 592.45 244.75 592.45 244.75C578.08 244.75 463.1 244.75 448.72 244.75C448.72 244.75 448.72 244.75 448.72 244.75C448.72 244.17 448.72 239.54 448.72 238.96C448.72 238.96 448.72 238.96 448.72 238.96C477.47 238.96 578.08 238.96 592.45 238.96Z" id="c8vc0HL3MW"></path><path d="M592.45 251.71C592.45 251.71 592.45 251.71 592.45 251.71C592.45 252.29 592.45 256.92 592.45 257.5C592.45 257.5 592.45 257.5 592.45 257.5C578.08 257.5 463.1 257.5 448.72 257.5C448.72 257.5 448.72 257.5 448.72 257.5C448.72 256.92 448.72 252.29 448.72 251.71C448.72 251.71 448.72 251.71 448.72 251.71C477.47 251.71 578.08 251.71 592.45 251.71Z" id="j1azPm4vD"></path><path d="M497.4 264.46C497.4 264.46 497.4 264.46 497.4 264.46C497.4 265.04 497.4 269.67 497.4 270.25C497.4 270.25 497.4 270.25 497.4 270.25C492.54 270.25 453.59 270.25 448.72 270.25C448.72 270.25 448.72 270.25 448.72 270.25C448.72 269.67 448.72 265.04 448.72 264.46C448.72 264.46 448.72 264.46 448.72 264.46C458.46 264.46 492.54 264.46 497.4 264.46Z" id="ecHM6WC0O"></path><path d="M299.35 295.79C299.35 295.79 299.35 295.79 299.35 295.79C299.35 296.37 299.35 301.01 299.35 301.59C299.35 301.59 299.35 301.59 299.35 301.59C284.98 301.59 170 301.59 155.62 301.59C155.62 301.59 155.62 301.59 155.62 301.59C155.62 301.01 155.62 296.37 155.62 295.79C155.62 295.79 155.62 295.79 155.62 295.79C184.37 295.79 284.98 295.79 299.35 295.79Z" id="c8HoxxC3l"></path><path d="M299.35 335.06C299.35 335.06 299.35 335.06 299.35 335.06C299.35 335.64 299.35 340.28 299.35 340.86C299.35 340.86 299.35 340.86 299.35 340.86C284.98 340.86 170 340.86 155.62 340.86C155.62 340.86 155.62 340.86 155.62 340.86C155.62 340.28 155.62 335.64 155.62 335.06C155.62 335.06 155.62 335.06 155.62 335.06C184.37 335.06 284.98 335.06 299.35 335.06Z" id="aalhUWt6"></path><path d="M204.3 353.24C204.3 353.24 204.3 353.24 204.3 353.24C204.3 352.66 204.3 348.02 204.3 347.44C204.3 347.44 204.3 347.44 204.3 347.44C199.44 347.44 160.49 347.44 155.62 347.44C155.62 347.44 155.62 347.44 155.62 347.44C155.62 348.02 155.62 352.66 155.62 353.24C155.62 353.24 155.62 353.24 155.62 353.24C165.36 353.24 199.44 353.24 204.3 353.24Z" id="gu0XXMuWd"></path><path d="M299.35 308.54C299.35 308.54 299.35 308.54 299.35 308.54C299.35 309.12 299.35 313.76 299.35 314.34C299.35 314.34 299.35 314.34 299.35 314.34C284.98 314.34 170 314.34 155.62 314.34C155.62 314.34 155.62 314.34 155.62 314.34C155.62 313.76 155.62 309.12 155.62 308.54C155.62 308.54 155.62 308.54 155.62 308.54C184.37 308.54 284.98 308.54 299.35 308.54Z" id="chamWYz7J"></path><path d="M299.35 321.94C299.35 321.94 299.35 321.94 299.35 321.94C299.35 322.52 299.35 327.16 299.35 327.74C299.35 327.74 299.35 327.74 299.35 327.74C284.98 327.74 170 327.74 155.62 327.74C155.62 327.74 155.62 327.74 155.62 327.74C155.62 327.16 155.62 322.52 155.62 321.94C155.62 321.94 155.62 321.94 155.62 321.94C184.37 321.94 284.98 321.94 299.35 321.94Z" id="i9oiDMdI2"></path><path d="M299.35 283.05C299.35 283.05 299.35 283.05 299.35 283.05C299.35 283.62 299.35 288.26 299.35 288.84C299.35 288.84 299.35 288.84 299.35 288.84C284.98 288.84 170 288.84 155.62 288.84C155.62 288.84 155.62 288.84 155.62 288.84C155.62 288.26 155.62 283.62 155.62 283.05C155.62 283.05 155.62 283.05 155.62 283.05C184.37 283.05 284.98 283.05 299.35 283.05Z" id="af9wm5tuT"></path></defs><g><g><g><use xlink:href="#ezSzOPofr" opacity="1" fill="#f2f2f2" fill-opacity="1"></use><g><use xlink:href="#ezSzOPofr" opacity="1" fill-opacity="0" stroke="#000000" stroke-width="1" stroke-opacity="0"></use></g></g><g><use xlink:href="#a5wfyrYR0T" opacity="1" fill="#f2f2f2" fill-opacity="1"></use><g><use xlink:href="#a5wfyrYR0T" opacity="1" fill-opacity="0" stroke="#000000" stroke-width="1" stroke-opacity="0"></use></g></g><g><use xlink:href="#b3qRmbArJt" opacity="1" fill="#323232" fill-opacity="1"></use><g><use xlink:href="#b3qRmbArJt" opacity="1" fill-opacity="0" stroke="#000000" stroke-width="1" stroke-opacity="0"></use></g></g><g><use xlink:href="#cgaCA54jU" opacity="1" fill="#323232" fill-opacity="1"></use><g><use xlink:href="#cgaCA54jU" opacity="1" fill-opacity="0" stroke="#000000" stroke-width="1" stroke-opacity="0"></use></g></g><g><use xlink:href="#bS1m3siNZ" opacity="1" fill="#323232" fill-opacity="1"></use><g><use xlink:href="#bS1m3siNZ" opacity="1" fill-opacity="0" stroke="#000000" stroke-width="1" stroke-opacity="0"></use></g></g><g><use xlink:href="#cqpIUnjd2" opacity="1" fill="#3c6389" fill-opacity="1"></use><g><use xlink:href="#cqpIUnjd2" opacity="1" fill-opacity="0" stroke="#000000" stroke-width="1" stroke-opacity="0"></use></g></g><g><use xlink:href="#e19TuNBr7A" opacity="1" fill="#e00909" fill-opacity="1"></use><g><use xlink:href="#e19TuNBr7A" opacity="1" fill-opacity="0" stroke="#000000" stroke-width="1" stroke-opacity="0"></use></g></g><g><use xlink:href="#an8iETpF7" opacity="1" fill="#e00909" fill-opacity="1"></use><g><use xlink:href="#an8iETpF7" opacity="1" fill-opacity="0" stroke="#000000" stroke-width="1" stroke-opacity="0"></use></g></g><g><use xlink:href="#afnGPH9DY" opacity="1" fill="#e00909" fill-opacity="1"></use><g><use xlink:href="#afnGPH9DY" opacity="1" fill-opacity="0" stroke="#000000" stroke-width="1" stroke-opacity="0"></use></g></g><g><use xlink:href="#bXdkzu23U" opacity="1" fill="#ffffff" fill-opacity="1"></use><g><use xlink:href="#bXdkzu23U" opacity="1" fill-opacity="0" stroke="#000000" stroke-width="1" stroke-opacity="0"></use></g></g><g><use xlink:href="#c5UCDi8xv" opacity="1" fill="#ffffff" fill-opacity="1"></use><g><use xlink:href="#c5UCDi8xv" opacity="1" fill-opacity="0" stroke="#000000" stroke-width="1" stroke-opacity="0"></use></g></g><g><use xlink:href="#i101rk0oWR" opacity="1" fill="#ffffff" fill-opacity="1"></use><g><use xlink:href="#i101rk0oWR" opacity="1" fill-opacity="0" stroke="#000000" stroke-width="1" stroke-opacity="0"></use></g></g><g><use xlink:href="#bCdZVockZ" opacity="1" fill="#f2f2f2" fill-opacity="1"></use><g><use xlink:href="#bCdZVockZ" opacity="1" fill-opacity="0" stroke="#000000" stroke-width="1" stroke-opacity="0"></use></g></g><g><use xlink:href="#e7jbuyUgU" opacity="1" fill="#f2f2f2" fill-opacity="1"></use><g><use xlink:href="#e7jbuyUgU" opacity="1" fill-opacity="0" stroke="#000000" stroke-width="1" stroke-opacity="0"></use></g></g><g><use xlink:href="#bzARxmmq8" opacity="1" fill="#f2f2f2" fill-opacity="1"></use><g><use xlink:href="#bzARxmmq8" opacity="1" fill-opacity="0" stroke="#000000" stroke-width="1" stroke-opacity="0"></use></g></g><g><use xlink:href="#fpkgSoMYB" opacity="1" fill="#3f3d56" fill-opacity="1"></use><g><use xlink:href="#fpkgSoMYB" opacity="1" fill-opacity="0" stroke="#000000" stroke-width="1" stroke-opacity="0"></use></g></g><g><use xlink:href="#a3aAMmqpNk" opacity="1" fill="#3f3d56" fill-opacity="1"></use><g><use xlink:href="#a3aAMmqpNk" opacity="1" fill-opacity="0" stroke="#000000" stroke-width="1" stroke-opacity="0"></use></g></g><g><use xlink:href="#buVt5UG7f" opacity="1" fill="#ffffff" fill-opacity="1"></use><g><use xlink:href="#buVt5UG7f" opacity="1" fill-opacity="0" stroke="#000000" stroke-width="1" stroke-opacity="0"></use></g></g><g><use xlink:href="#adkhFUDF5" opacity="1" fill="#323232" fill-opacity="1"></use><g><use xlink:href="#adkhFUDF5" opacity="1" fill-opacity="0" stroke="#000000" stroke-width="1" stroke-opacity="0"></use></g></g><g><use xlink:href="#b15mpJ7Ls" opacity="1" fill="#323232" fill-opacity="1"></use><g><use xlink:href="#b15mpJ7Ls" opacity="1" fill-opacity="0" stroke="#000000" stroke-width="1" stroke-opacity="0"></use></g></g><g><use xlink:href="#b1QhAM5Ec" opacity="1" fill="#323232" fill-opacity="1"></use><g><use xlink:href="#b1QhAM5Ec" opacity="1" fill-opacity="0" stroke="#000000" stroke-width="1" stroke-opacity="0"></use></g></g><g><use xlink:href="#e1roz10Lw" opacity="1" fill="#323232" fill-opacity="1"></use><g><use xlink:href="#e1roz10Lw" opacity="1" fill-opacity="0" stroke="#000000" stroke-width="1" stroke-opacity="0"></use></g></g><g><use xlink:href="#l1aCZeVmfo" opacity="1" fill="#e0ac69" fill-opacity="1"></use><g><use xlink:href="#l1aCZeVmfo" opacity="1" fill-opacity="0" stroke="#000000" stroke-width="1" stroke-opacity="0"></use></g></g><g><use xlink:href="#ahJ9H6yDd" opacity="1" fill="#323232" fill-opacity="1"></use><g><use xlink:href="#ahJ9H6yDd" opacity="1" fill-opacity="0" stroke="#000000" stroke-width="1" stroke-opacity="0"></use></g></g><g><use xlink:href="#a258hfZ5L2" opacity="1" fill="#323232" fill-opacity="1"></use><g><use xlink:href="#a258hfZ5L2" opacity="1" fill-opacity="0" stroke="#000000" stroke-width="1" stroke-opacity="0"></use></g></g><g><use xlink:href="#b3OM6Ej4sq" opacity="1" fill="#e0ac69" fill-opacity="1"></use><g><use xlink:href="#b3OM6Ej4sq" opacity="1" fill-opacity="0" stroke="#000000" stroke-width="1" stroke-opacity="0"></use></g></g><g><use xlink:href="#d69XUMjKGN" opacity="1" fill="#323232" fill-opacity="1"></use><g><use xlink:href="#d69XUMjKGN" opacity="1" fill-opacity="0" stroke="#000000" stroke-width="1" stroke-opacity="0"></use></g></g><g><use xlink:href="#gBACgOmD" opacity="1" fill="#323232" fill-opacity="1"></use><g><use xlink:href="#gBACgOmD" opacity="1" fill-opacity="0" stroke="#000000" stroke-width="1" stroke-opacity="0"></use></g></g><g><use xlink:href="#c2oogrVewI" opacity="1" fill="#323232" fill-opacity="1"></use><g><use xlink:href="#c2oogrVewI" opacity="1" fill-opacity="0" stroke="#000000" stroke-width="1" stroke-opacity="0"></use></g></g><g><use xlink:href="#b94i9f8sy" opacity="1" fill="#165cc7" fill-opacity="1"></use><g><use xlink:href="#b94i9f8sy" opacity="1" fill-opacity="0" stroke="#000000" stroke-width="1" stroke-opacity="0"></use></g></g><g><use xlink:href="#fRR8jVuUD" opacity="1" fill="#e0ac69" fill-opacity="1"></use><g><use xlink:href="#fRR8jVuUD" opacity="1" fill-opacity="0" stroke="#000000" stroke-width="1" stroke-opacity="0"></use></g></g><g><use xlink:href="#dIkC9DavZ" opacity="1" fill="#22486e" fill-opacity="1"></use><g><use xlink:href="#dIkC9DavZ" opacity="1" fill-opacity="0" stroke="#000000" stroke-width="1" stroke-opacity="0"></use></g></g><g><use xlink:href="#e1b7Lcxc1M" opacity="1" fill="#3c6389" fill-opacity="1"></use><g><use xlink:href="#e1b7Lcxc1M" opacity="1" fill-opacity="0" stroke="#000000" stroke-width="1" stroke-opacity="0"></use></g></g><g><use xlink:href="#d2G2weChdV" opacity="1" fill="#3c6389" fill-opacity="1"></use><g><use xlink:href="#d2G2weChdV" opacity="1" fill-opacity="0" stroke="#000000" stroke-width="1" stroke-opacity="0"></use></g></g><g><use xlink:href="#d3TcWZo8gB" opacity="1" fill="#e0ac69" fill-opacity="1"></use><g><use xlink:href="#d3TcWZo8gB" opacity="1" fill-opacity="0" stroke="#000000" stroke-width="1" stroke-opacity="0"></use></g></g><g><use xlink:href="#aHQbVZAzb" opacity="1" fill="#f3f3f3" fill-opacity="1"></use><g><use xlink:href="#aHQbVZAzb" opacity="1" fill-opacity="0" stroke="#000000" stroke-width="1" stroke-opacity="0"></use></g></g><g><use xlink:href="#bcafsCZ99" opacity="1" fill="#3c6389" fill-opacity="1"></use><g><use xlink:href="#bcafsCZ99" opacity="1" fill-opacity="0" stroke="#000000" stroke-width="1" stroke-opacity="0"></use></g></g><g><use xlink:href="#kYA6pctmZ" opacity="1" fill="#3c6389" fill-opacity="1"></use><g><use xlink:href="#kYA6pctmZ" opacity="1" fill-opacity="0" stroke="#000000" stroke-width="1" stroke-opacity="0"></use></g></g><g><use xlink:href="#j1eCpowjlc" opacity="1" fill="#3c6389" fill-opacity="1"></use><g><use xlink:href="#j1eCpowjlc" opacity="1" fill-opacity="0" stroke="#000000" stroke-width="1" stroke-opacity="0"></use></g></g><g><use xlink:href="#b5YegDfSk8" opacity="1" fill="#e0ac69" fill-opacity="1"></use><g><use xlink:href="#b5YegDfSk8" opacity="1" fill-opacity="0" stroke="#000000" stroke-width="1" stroke-opacity="0"></use></g></g><g><use xlink:href="#fgcT6C4zQ" opacity="1" fill="#3c6389" fill-opacity="1"></use><g><use xlink:href="#fgcT6C4zQ" opacity="1" fill-opacity="0" stroke="#000000" stroke-width="1" stroke-opacity="0"></use></g></g><g><use xlink:href="#b2zDAUpjXz" opacity="1" fill="#3c6389" fill-opacity="1"></use><g><use xlink:href="#b2zDAUpjXz" opacity="1" fill-opacity="0" stroke="#000000" stroke-width="1" stroke-opacity="0"></use></g></g><g><use xlink:href="#b4aAuxQjj" opacity="1" fill="#e0ac69" fill-opacity="1"></use><g><use xlink:href="#b4aAuxQjj" opacity="1" fill-opacity="0" stroke="#000000" stroke-width="1" stroke-opacity="0"></use></g></g><g><use xlink:href="#c1apHX8RrD" opacity="1" fill="#4d3405" fill-opacity="1"></use><g><use xlink:href="#c1apHX8RrD" opacity="1" fill-opacity="0" stroke="#000000" stroke-width="1" stroke-opacity="0"></use></g></g><g><use xlink:href="#aRG29Jnko" opacity="1" fill="#f2f2f2" fill-opacity="1"></use><g><use xlink:href="#aRG29Jnko" opacity="1" fill-opacity="0" stroke="#000000" stroke-width="1" stroke-opacity="0"></use></g></g><g><use xlink:href="#a25QsbW3Cp" opacity="1" fill="#323232" fill-opacity="1"></use><g><use xlink:href="#a25QsbW3Cp" opacity="1" fill-opacity="0" stroke="#000000" stroke-width="1" stroke-opacity="0"></use></g></g><g><use xlink:href="#c8vc0HL3MW" opacity="1" fill="#ffffff" fill-opacity="1"></use><g><use xlink:href="#c8vc0HL3MW" opacity="1" fill-opacity="0" stroke="#000000" stroke-width="1" stroke-opacity="0"></use></g></g><g><use xlink:href="#j1azPm4vD" opacity="1" fill="#ffffff" fill-opacity="1"></use><g><use xlink:href="#j1azPm4vD" opacity="1" fill-opacity="0" stroke="#000000" stroke-width="1" stroke-opacity="0"></use></g></g><g><use xlink:href="#ecHM6WC0O" opacity="1" fill="#ffffff" fill-opacity="1"></use><g><use xlink:href="#ecHM6WC0O" opacity="1" fill-opacity="0" stroke="#000000" stroke-width="1" stroke-opacity="0"></use></g></g><g><use xlink:href="#c8HoxxC3l" opacity="1" fill="#ffffff" fill-opacity="1"></use><g><use xlink:href="#c8HoxxC3l" opacity="1" fill-opacity="0" stroke="#000000" stroke-width="1" stroke-opacity="0"></use></g></g><g><use xlink:href="#aalhUWt6" opacity="1" fill="#ffffff" fill-opacity="1"></use><g><use xlink:href="#aalhUWt6" opacity="1" fill-opacity="0" stroke="#000000" stroke-width="1" stroke-opacity="0"></use></g></g><g><use xlink:href="#gu0XXMuWd" opacity="1" fill="#ffffff" fill-opacity="1"></use><g><use xlink:href="#gu0XXMuWd" opacity="1" fill-opacity="0" stroke="#000000" stroke-width="1" stroke-opacity="0"></use></g></g><g><use xlink:href="#chamWYz7J" opacity="1" fill="#ffffff" fill-opacity="1"></use><g><use xlink:href="#chamWYz7J" opacity="1" fill-opacity="0" stroke="#000000" stroke-width="1" stroke-opacity="0"></use></g></g><g><use xlink:href="#i9oiDMdI2" opacity="1" fill="#ffffff" fill-opacity="1"></use><g><use xlink:href="#i9oiDMdI2" opacity="1" fill-opacity="0" stroke="#000000" stroke-width="1" stroke-opacity="0"></use></g></g><g><use xlink:href="#af9wm5tuT" opacity="1" fill="#ffffff" fill-opacity="1"></use><g><use xlink:href="#af9wm5tuT" opacity="1" fill-opacity="0" stroke="#000000" stroke-width="1" stroke-opacity="0"></use></g></g></g></g></svg>