<?xml version="1.0" encoding="UTF-8" standalone="no"?>
<!DOCTYPE svg PUBLIC "-//W3C//DTD SVG 1.1//EN" "http://www.w3.org/Graphics/SVG/1.1/DTD/svg11.dtd">
<svg version="1.1" xmlns="http://www.w3.org/2000/svg" xmlns:xlink="http://www.w3.org/1999/xlink" preserveAspectRatio="xMidYMid meet" viewBox="0 0 650 400" width="650" height="400"><defs><path d="M297.21 400C114.11 400 -34.32 391.39 -34.32 380.77C-34.32 370.16 114.11 361.55 297.21 361.55C480.31 361.55 628.74 370.16 628.74 380.77C628.74 391.39 480.31 400 297.21 400Z" id="aOqxxnLv8"></path><path d="M266.82 264.87L271.4 266.1L237.09 394.15L232.5 392.92L266.82 264.87Z" id="f3qLQvVoSf"></path><path d="M262.13 266.15L266.93 264.86L300.88 391.57L296.08 392.85L262.13 266.15Z" id="fxSQ8TJTj"></path><path d="M264.31 280.16L269.06 280.16L269.06 394.15L264.31 394.15L264.31 280.16Z" id="aFheIQy2"></path><path d="M498.65 64.73C498.65 64.73 498.65 64.73 498.65 64.73C498.65 88.81 498.65 281.45 498.65 305.53C498.65 305.53 498.65 305.53 498.65 305.53C452.26 305.53 81.13 305.53 34.73 305.53C34.73 305.53 34.73 305.53 34.73 305.53C34.73 281.45 34.73 88.81 34.73 64.73C34.73 64.73 34.73 64.73 34.73 64.73C127.52 64.73 452.26 64.73 498.65 64.73Z" id="f2DBNONTAX"></path><path d="M494.47 68.16C494.47 68.16 494.47 68.16 494.47 68.16C494.47 91.57 494.47 278.88 494.47 302.29C494.47 302.29 494.47 302.29 494.47 302.29C448.82 302.29 83.61 302.29 37.96 302.29C37.96 302.29 37.96 302.29 37.96 302.29C37.96 278.88 37.96 91.57 37.96 68.16C37.96 68.16 37.96 68.16 37.96 68.16C129.26 68.16 448.82 68.16 494.47 68.16Z" id="bOEGRHWHv"></path><path d="M178.69 260.69L178.76 260.7L178.83 260.72L178.9 260.74L178.97 260.77L179.03 260.8L179.09 260.84L179.15 260.88L179.21 260.92L179.26 260.97L179.3 261.03L179.34 261.08L179.38 261.15L179.41 261.21L179.44 261.28L179.46 261.35L179.47 261.42L179.48 261.49L179.49 261.57L179.49 274.7L179.48 274.78L179.48 274.85L179.46 274.93L179.44 274.99L179.41 275.06L179.38 275.13L179.34 275.19L179.3 275.24L179.26 275.3L179.21 275.35L179.15 275.39L179.1 275.43L179.03 275.47L178.97 275.5L178.9 275.53L178.83 275.55L178.76 275.57L178.69 275.58L178.61 275.58L145.77 275.58L145.69 275.58L145.62 275.57L145.55 275.55L145.48 275.53L145.41 275.5L145.35 275.47L145.29 275.43L145.23 275.39L145.18 275.35L145.13 275.3L145.08 275.24L145.04 275.19L145 275.13L144.97 275.06L144.94 274.99L144.92 274.93L144.91 274.85L144.9 274.78L144.89 274.7L144.89 261.57L144.9 261.49L144.91 261.42L144.92 261.35L144.94 261.28L144.97 261.21L145 261.15L145.04 261.09L145.08 261.03L145.13 260.97L145.18 260.92L145.23 260.88L145.29 260.84L145.35 260.8L145.41 260.77L145.48 260.74L145.55 260.72L145.62 260.7L145.69 260.69L145.77 260.69L178.61 260.69L178.69 260.69ZM146.65 273.83L177.74 273.83L177.74 262.44L146.65 262.44L146.65 273.83Z" id="g1Y34Qqltc"></path><path d="M223.12 260.69L223.2 260.7L223.27 260.72L223.34 260.74L223.4 260.77L223.47 260.8L223.53 260.84L223.59 260.88L223.64 260.92L223.69 260.97L223.74 261.03L223.78 261.08L223.81 261.15L223.85 261.21L223.87 261.28L223.89 261.35L223.91 261.42L223.92 261.49L223.92 261.57L223.92 274.7L223.92 274.78L223.91 274.85L223.89 274.93L223.87 274.99L223.85 275.06L223.81 275.13L223.78 275.19L223.74 275.24L223.69 275.3L223.64 275.35L223.59 275.39L223.53 275.43L223.47 275.47L223.4 275.5L223.34 275.53L223.27 275.55L223.2 275.57L223.12 275.58L223.05 275.58L190.2 275.58L190.13 275.58L190.05 275.57L189.98 275.55L189.91 275.53L189.85 275.5L189.78 275.47L189.72 275.44L189.66 275.39L189.61 275.35L189.56 275.3L189.51 275.24L189.47 275.19L189.44 275.13L189.4 275.06L189.38 275L189.36 274.93L189.34 274.85L189.33 274.78L189.33 274.7L189.33 261.57L189.33 261.49L189.34 261.42L189.36 261.35L189.38 261.28L189.4 261.21L189.44 261.15L189.47 261.09L189.51 261.03L189.56 260.97L189.61 260.92L189.66 260.88L189.72 260.84L189.78 260.8L189.85 260.77L189.91 260.74L189.98 260.72L190.05 260.7L190.13 260.69L190.2 260.69L223.05 260.69L223.12 260.69ZM191.08 273.83L222.17 273.83L222.17 262.44L191.08 262.44L191.08 273.83Z" id="a6fMUprwLH"></path><path d="M177.81 275.04C174.62 273.78 149.12 263.73 145.93 262.48C145.48 262.3 145.26 261.79 145.44 261.34C145.62 260.89 146.12 260.67 146.57 260.85C149.76 262.1 175.26 272.15 178.45 273.41C178.9 273.58 179.12 274.09 178.94 274.54C178.81 274.88 178.49 275.1 178.13 275.1C178.02 275.1 177.91 275.08 177.81 275.04Z" id="b1cLWj3JuB"></path><path d="M145.38 274.22C145.38 273.85 145.61 273.52 145.95 273.4C149.14 272.24 174.64 262.97 177.83 261.81C178.28 261.64 178.79 261.87 178.95 262.33C179.12 262.78 178.89 263.28 178.44 263.45C178.43 263.45 178.43 263.45 178.43 263.45C175.24 264.61 149.74 273.88 146.55 275.04C146.46 275.08 146.35 275.1 146.25 275.1C145.77 275.1 145.38 274.71 145.38 274.22Z" id="euoeGYQXT"></path><path d="M222.26 275.04C219.16 273.88 194.44 264.61 191.35 263.45C190.89 263.28 190.66 262.78 190.83 262.32C191 261.87 191.51 261.64 191.96 261.81C195.05 262.97 219.78 272.24 222.87 273.4C223.32 273.57 223.55 274.08 223.38 274.53C223.25 274.87 222.93 275.1 222.56 275.1C222.46 275.1 222.35 275.08 222.26 275.04Z" id="j2hGSrrvoc"></path><path d="M190.78 273.26C190.78 272.88 191.02 272.55 191.37 272.43C194.46 271.37 219.19 262.87 222.28 261.8C222.73 261.64 223.23 261.88 223.39 262.34C223.55 262.8 223.31 263.3 222.86 263.45C222.85 263.46 222.85 263.46 222.85 263.46C219.76 264.52 195.03 273.02 191.94 274.08C191.85 274.11 191.75 274.13 191.65 274.13C191.17 274.13 190.78 273.74 190.78 273.26Z" id="h24OmomweH"></path><path d="M91.01 85.87L92.26 86.12L93.48 86.48L94.66 86.92L95.79 87.45L96.87 88.07L97.9 88.76L98.86 89.53L99.77 90.37L100.61 91.27L101.38 92.24L102.07 93.27L102.68 94.35L103.22 95.48L103.66 96.65L104.01 97.87L104.27 99.13L104.43 100.42L104.48 101.73L104.42 103.05L104.27 104.34L104.01 105.6L103.65 106.81L103.21 107.99L102.68 109.12L102.06 110.2L101.37 111.23L100.6 112.19L99.76 113.1L98.86 113.94L97.89 114.71L96.87 115.4L95.79 116.01L94.66 116.54L93.48 116.99L92.26 117.34L91.01 117.6L89.72 117.76L88.4 117.81L87.08 117.76L85.79 117.6L84.54 117.35L83.32 116.99L82.14 116.55L81.01 116.02L79.93 115.4L78.9 114.71L77.94 113.94L77.03 113.1L76.19 112.2L75.42 111.23L74.73 110.2L74.12 109.12L73.59 107.99L73.14 106.82L72.79 105.6L72.53 104.34L72.38 103.05L72.32 101.73L72.38 100.42L72.53 99.13L72.79 97.87L73.14 96.65L73.59 95.48L74.12 94.35L74.73 93.27L75.42 92.24L76.19 91.27L77.03 90.37L77.94 89.53L78.9 88.76L79.93 88.07L81.01 87.45L82.14 86.92L83.32 86.48L84.54 86.12L85.79 85.87L87.08 85.71L88.4 85.66L89.72 85.71L91.01 85.87ZM85.75 88.05L84.49 88.36L83.27 88.77L82.11 89.3L81.01 89.92L79.97 90.64L79 91.45L78.11 92.34L77.31 93.3L76.59 94.34L75.96 95.44L75.44 96.61L75.02 97.82L74.72 99.09L74.53 100.39L74.47 101.73L74.53 103.08L74.72 104.38L75.02 105.65L75.44 106.86L75.96 108.02L76.59 109.13L77.31 110.17L78.11 111.13L79 112.02L79.97 112.83L81.01 113.55L82.11 114.17L83.27 114.69L84.49 115.11L85.75 115.42L87.06 115.61L88.4 115.67L89.74 115.61L91.05 115.42L92.31 115.11L93.53 114.69L94.69 114.17L95.79 113.55L96.83 112.83L97.8 112.02L98.69 111.13L99.5 110.17L100.21 109.13L100.84 108.03L101.36 106.86L101.78 105.65L102.08 104.38L102.27 103.08L102.33 101.73L102.27 100.39L102.08 99.09L101.77 97.82L101.36 96.61L100.83 95.45L100.21 94.34L99.49 93.31L98.68 92.34L97.79 91.45L96.83 90.64L95.79 89.93L94.69 89.3L93.53 88.78L92.31 88.36L91.05 88.05L89.74 87.87L88.4 87.8L87.06 87.86L85.75 88.05Z" id="brfyrNXVh"></path><path d="M186.74 85.87L188 86.12L189.22 86.48L190.39 86.92L191.53 87.45L192.61 88.07L193.63 88.76L194.6 89.53L195.51 90.37L196.34 91.27L197.11 92.24L197.81 93.27L198.42 94.35L198.95 95.48L199.39 96.65L199.75 97.87L200 99.13L200.16 100.42L200.21 101.73L200.16 103.05L200 104.34L199.74 105.6L199.39 106.81L198.95 107.99L198.42 109.12L197.8 110.2L197.11 111.23L196.34 112.19L195.5 113.1L194.6 113.94L193.63 114.71L192.6 115.4L191.52 116.01L190.39 116.54L189.22 116.99L188 117.34L186.74 117.6L185.45 117.76L184.14 117.81L182.82 117.76L181.53 117.6L180.27 117.35L179.05 116.99L177.88 116.55L176.75 116.02L175.67 115.4L174.64 114.71L173.67 113.94L172.77 113.1L171.93 112.2L171.16 111.23L170.47 110.2L169.85 109.12L169.32 107.99L168.88 106.82L168.53 105.6L168.27 104.34L168.11 103.05L168.06 101.73L168.11 100.42L168.27 99.13L168.53 97.87L168.88 96.65L169.32 95.48L169.85 94.35L170.47 93.27L171.16 92.24L171.93 91.27L172.77 90.37L173.67 89.53L174.64 88.76L175.67 88.07L176.75 87.45L177.88 86.92L179.05 86.48L180.27 86.12L181.53 85.87L182.82 85.71L184.14 85.66L185.46 85.71L186.74 85.87ZM181.49 88.05L180.22 88.36L179.01 88.77L177.85 89.3L176.74 89.92L175.7 90.64L174.74 91.45L173.85 92.34L173.04 93.3L172.32 94.34L171.7 95.44L171.18 96.61L170.76 97.82L170.45 99.09L170.27 100.39L170.2 101.73L170.27 103.08L170.45 104.38L170.76 105.65L171.18 106.86L171.7 108.02L172.32 109.13L173.04 110.17L173.85 111.13L174.74 112.02L175.7 112.83L176.74 113.55L177.85 114.17L179.01 114.69L180.22 115.11L181.49 115.42L182.79 115.61L184.14 115.67L185.48 115.61L186.78 115.42L188.05 115.11L189.26 114.69L190.43 114.17L191.53 113.55L192.57 112.83L193.53 112.02L194.42 111.13L195.23 110.17L195.95 109.13L196.57 108.03L197.1 106.86L197.51 105.65L197.82 104.38L198.01 103.08L198.07 101.73L198.01 100.39L197.82 99.09L197.51 97.82L197.09 96.61L196.57 95.45L195.94 94.34L195.23 93.31L194.42 92.34L193.53 91.45L192.56 90.64L191.53 89.93L190.42 89.3L189.26 88.78L188.05 88.36L186.78 88.05L185.48 87.87L184.14 87.8L182.79 87.86L181.49 88.05Z" id="a1O2dSa7XM"></path><path d="M318.59 85.87L319.84 86.12L321.06 86.48L322.24 86.92L323.37 87.45L324.45 88.07L325.47 88.76L326.44 89.53L327.35 90.37L328.19 91.27L328.95 92.24L329.65 93.27L330.26 94.35L330.79 95.48L331.24 96.65L331.59 97.87L331.85 99.13L332 100.42L332.06 101.73L332 103.05L331.84 104.34L331.59 105.6L331.23 106.81L330.79 107.99L330.26 109.12L329.64 110.2L328.95 111.23L328.18 112.19L327.34 113.1L326.44 113.94L325.47 114.71L324.44 115.4L323.36 116.01L322.23 116.54L321.06 116.99L319.84 117.34L318.58 117.6L317.3 117.76L315.98 117.81L314.66 117.76L313.37 117.6L312.11 117.35L310.9 116.99L309.72 116.55L308.59 116.02L307.51 115.4L306.48 114.71L305.51 113.94L304.61 113.1L303.77 112.2L303 111.23L302.31 110.2L301.69 109.12L301.16 107.99L300.72 106.82L300.37 105.6L300.11 104.34L299.95 103.05L299.9 101.73L299.95 100.42L300.11 99.13L300.37 97.87L300.72 96.65L301.16 95.48L301.69 94.35L302.31 93.27L303 92.24L303.77 91.27L304.61 90.37L305.51 89.53L306.48 88.76L307.51 88.07L308.59 87.45L309.72 86.92L310.9 86.48L312.11 86.12L313.37 85.87L314.66 85.71L315.98 85.66L317.3 85.71L318.59 85.87ZM313.33 88.05L312.07 88.36L310.85 88.77L309.69 89.3L308.58 89.92L307.55 90.64L306.58 91.45L305.69 92.34L304.88 93.3L304.16 94.34L303.54 95.44L303.02 96.61L302.6 97.82L302.29 99.09L302.11 100.39L302.04 101.73L302.11 103.08L302.29 104.38L302.6 105.65L303.02 106.86L303.54 108.02L304.16 109.13L304.88 110.17L305.69 111.13L306.58 112.02L307.55 112.83L308.58 113.55L309.69 114.17L310.85 114.69L312.07 115.11L313.33 115.42L314.64 115.61L315.98 115.67L317.32 115.61L318.63 115.42L319.89 115.11L321.11 114.69L322.27 114.17L323.37 113.55L324.41 112.83L325.38 112.02L326.27 111.13L327.07 110.17L327.79 109.13L328.41 108.03L328.94 106.86L329.36 105.65L329.66 104.38L329.85 103.08L329.91 101.73L329.85 100.39L329.66 99.09L329.35 97.82L328.93 96.61L328.41 95.45L327.79 94.34L327.07 93.31L326.26 92.34L325.37 91.45L324.41 90.64L323.37 89.93L322.27 89.3L321.1 88.78L319.89 88.36L318.62 88.05L317.32 87.87L315.98 87.8L314.64 87.86L313.33 88.05Z" id="d3DY4jw23"></path><path d="M456.71 85.87L457.97 86.12L459.19 86.48L460.37 86.92L461.5 87.45L462.58 88.07L463.6 88.76L464.57 89.53L465.48 90.37L466.31 91.27L467.08 92.24L467.78 93.27L468.39 94.35L468.92 95.48L469.37 96.65L469.72 97.87L469.97 99.13L470.13 100.42L470.19 101.73L470.13 103.05L469.97 104.34L469.71 105.6L469.36 106.81L468.92 107.99L468.39 109.12L467.77 110.2L467.08 111.23L466.31 112.19L465.47 113.1L464.57 113.94L463.6 114.71L462.57 115.4L461.49 116.01L460.36 116.54L459.19 116.99L457.97 117.34L456.71 117.6L455.43 117.76L454.11 117.81L452.79 117.76L451.5 117.6L450.24 117.35L449.02 116.99L447.85 116.55L446.72 116.02L445.64 115.4L444.61 114.71L443.64 113.94L442.74 113.1L441.9 112.2L441.13 111.23L440.44 110.2L439.82 109.12L439.29 107.99L438.85 106.82L438.5 105.6L438.24 104.34L438.08 103.05L438.03 101.73L438.08 100.42L438.24 99.13L438.5 97.87L438.85 96.65L439.29 95.48L439.82 94.35L440.44 93.27L441.13 92.24L441.9 91.27L442.74 90.37L443.64 89.53L444.61 88.76L445.64 88.07L446.72 87.45L447.85 86.92L449.02 86.48L450.24 86.12L451.5 85.87L452.79 85.71L454.11 85.66L455.43 85.71L456.71 85.87ZM451.46 88.05L450.2 88.36L448.98 88.77L447.82 89.3L446.71 89.92L445.68 90.64L444.71 91.45L443.82 92.34L443.01 93.3L442.29 94.34L441.67 95.44L441.15 96.61L440.73 97.82L440.42 99.09L440.24 100.39L440.17 101.73L440.24 103.08L440.42 104.38L440.73 105.65L441.15 106.86L441.67 108.03L442.29 109.13L443.01 110.17L443.82 111.13L444.71 112.02L445.68 112.83L446.71 113.55L447.82 114.17L448.98 114.69L450.2 115.11L451.46 115.42L452.76 115.61L454.11 115.67L455.45 115.61L456.75 115.42L458.02 115.11L459.23 114.69L460.4 114.17L461.5 113.55L462.54 112.83L463.51 112.02L464.39 111.13L465.2 110.17L465.92 109.13L466.54 108.03L467.07 106.86L467.48 105.65L467.79 104.38L467.98 103.08L468.04 101.73L467.98 100.39L467.79 99.09L467.48 97.82L467.06 96.61L466.54 95.45L465.92 94.34L465.2 93.31L464.39 92.34L463.5 91.45L462.53 90.64L461.5 89.93L460.39 89.3L459.23 88.78L458.02 88.36L456.75 88.05L455.45 87.87L454.11 87.8L452.76 87.86L451.46 88.05Z" id="f8IsTvXQ82"></path><path d="M181.29 106.7L181.29 105.89C181.91 105.28 182.26 104.95 182.33 104.88C184.82 102.51 185.95 101.25 185.96 99.77C186.06 98.82 185.36 97.96 184.41 97.87C184.28 97.85 184.15 97.85 184.03 97.87C183.26 97.9 182.53 98.19 181.95 98.69C181.91 98.6 181.57 97.86 181.53 97.76C182.31 97.12 183.29 96.77 184.3 96.77C185.81 96.64 187.14 97.75 187.27 99.26C187.28 99.38 187.29 99.49 187.28 99.61C187.28 101.41 185.98 102.87 183.92 104.85C183.87 104.9 183.61 105.14 183.14 105.57L183.14 105.6L187.52 105.6L187.52 106.7L181.29 106.7Z" id="a67j9k0mxJ"></path><path d="M88.04 98.09L88.01 98.09L86.32 99L86.06 98L88.19 96.85L89.32 96.85L89.32 106.61L88.04 106.61L88.04 98.09Z" id="abeKBJusd"></path><path d="M456.77 102.92L456.77 103.96L455.41 103.96L455.41 106.61L454.16 106.61L454.16 103.96L449.63 103.96L449.63 103.09L453.98 96.85L455.41 96.85L455.41 102.92L456.77 102.92ZM453.95 98.53L453.75 98.9L453.55 99.24L453.35 99.57L450.96 102.89L450.96 102.92L454.16 102.92L454.16 99.66L454.16 99.28L454.17 98.9L454.19 98.51L454.21 98.13L454.16 98.13L453.95 98.53Z" id="f5G8coa22c"></path><path d="M313.29 105.1C313.95 105.49 314.69 105.7 315.45 105.71C317.15 105.71 317.68 104.63 317.66 103.82C317.64 102.45 316.41 101.87 315.14 101.87C315.09 101.87 314.84 101.87 314.4 101.87L314.4 100.88C314.84 100.88 315.09 100.88 315.14 100.88C316.1 100.88 317.32 100.38 317.32 99.23C317.32 98.45 316.82 97.75 315.6 97.75C314.9 97.77 314.22 98 313.65 98.4C313.62 98.31 313.34 97.54 313.31 97.44C314.06 96.95 314.95 96.68 315.86 96.69C317.78 96.69 318.65 97.83 318.65 99.02C318.63 100.1 317.89 101.04 316.85 101.31C316.85 101.32 316.85 101.34 316.85 101.34C318.09 101.52 319.02 102.59 319.03 103.85C319.03 105.41 317.81 106.78 315.47 106.78C314.58 106.79 313.7 106.56 312.93 106.12C313 105.91 313.22 105.3 313.29 105.1Z" id="b9gO07q1d"></path><path d="M363.39 212.88L363.43 212.88L363.48 212.89L363.52 212.9L363.56 212.91L363.6 212.92L363.64 212.93L363.68 212.94L363.72 212.96L363.76 212.98L363.79 212.99L363.83 213.01L363.87 213.03L363.9 213.06L363.94 213.08L363.97 213.11L364 213.13L364.03 213.16L364.06 213.19L364.09 213.22L364.12 213.25L364.14 213.28L364.17 213.31L364.19 213.35L364.21 213.38L364.23 213.42L364.25 213.45L364.27 213.49L364.29 213.53L364.31 213.57L364.32 213.61L364.33 213.65L364.34 213.69L364.35 213.73L364.36 213.77L364.37 213.81L364.37 213.86L364.37 213.9L364.37 213.95L364.37 274.51L364.37 274.55L364.37 274.6L364.37 274.64L364.36 274.68L364.35 274.72L364.34 274.76L364.33 274.81L364.32 274.85L364.31 274.89L364.29 274.92L364.27 274.96L364.25 275L364.24 275.04L364.21 275.07L364.19 275.11L364.17 275.14L364.14 275.17L364.12 275.2L364.09 275.24L364.06 275.27L364.03 275.29L364 275.32L363.97 275.35L363.94 275.37L363.9 275.4L363.87 275.42L363.83 275.44L363.8 275.46L363.76 275.48L363.72 275.49L363.68 275.51L363.64 275.52L363.6 275.54L363.56 275.55L363.52 275.56L363.48 275.57L363.43 275.57L363.39 275.58L363.35 275.58L363.3 275.58L268.65 275.58L268.61 275.58L268.57 275.58L268.52 275.57L268.48 275.57L268.44 275.56L268.4 275.55L268.35 275.54L268.31 275.52L268.28 275.51L268.24 275.5L268.2 275.48L268.16 275.46L268.12 275.44L268.09 275.42L268.05 275.4L268.02 275.37L267.99 275.35L267.96 275.32L267.93 275.29L267.9 275.27L267.87 275.24L267.84 275.21L267.81 275.17L267.79 275.14L267.76 275.11L267.74 275.07L267.72 275.04L267.7 275L267.68 274.96L267.67 274.93L267.65 274.89L267.64 274.85L267.62 274.81L267.61 274.77L267.6 274.72L267.6 274.68L267.59 274.64L267.59 274.6L267.58 274.55L267.58 274.51L267.58 213.95L267.58 213.9L267.58 213.86L267.59 213.82L267.6 213.77L267.6 213.73L267.61 213.69L267.62 213.65L267.64 213.61L267.65 213.57L267.67 213.53L267.68 213.49L267.7 213.45L267.72 213.42L267.74 213.38L267.76 213.35L267.79 213.31L267.81 213.28L267.84 213.25L267.87 213.22L267.89 213.19L267.92 213.16L267.96 213.13L267.99 213.11L268.02 213.08L268.05 213.06L268.09 213.04L268.12 213.01L268.16 212.99L268.2 212.98L268.24 212.96L268.27 212.94L268.31 212.93L268.35 212.92L268.39 212.91L268.44 212.9L268.48 212.89L268.52 212.88L268.56 212.88L268.61 212.88L268.65 212.87L363.3 212.87L363.35 212.88L363.39 212.88ZM269.73 273.44L362.23 273.44L362.23 215.02L269.73 215.02L269.73 273.44Z" id="a4x143EeEj"></path><path d="M288.48 226.27C287.89 226.27 287.41 225.79 287.41 225.2C287.41 224.61 287.89 224.13 288.48 224.13C294.27 224.13 340.58 224.13 346.36 224.13C346.96 224.13 347.44 224.61 347.44 225.2C347.44 225.79 346.96 226.27 346.36 226.27C334.79 226.27 294.27 226.27 288.48 226.27Z" id="a8NN0sNj9n"></path><path d="M288.48 235.92C287.89 235.92 287.41 235.44 287.41 234.85C287.41 234.26 287.89 233.78 288.48 233.78C288.48 233.78 288.48 233.78 288.48 233.78C294.27 233.78 340.58 233.78 346.36 233.78C346.96 233.78 347.44 234.26 347.44 234.85C347.44 235.44 346.96 235.92 346.36 235.92C334.79 235.92 294.27 235.92 288.48 235.92Z" id="bcuwkcLA"></path><path d="M288.48 245.57C287.89 245.57 287.41 245.09 287.41 244.49C287.41 243.9 287.89 243.42 288.48 243.42C294.27 243.42 340.58 243.42 346.36 243.42C346.96 243.42 347.44 243.9 347.44 244.49C347.44 245.09 346.96 245.57 346.36 245.57C334.79 245.57 294.27 245.57 288.48 245.57Z" id="j57GAPxRO"></path><path d="M288.48 255.21C287.89 255.22 287.41 254.74 287.41 254.14C287.41 253.55 287.89 253.07 288.48 253.07C288.48 253.07 288.48 253.07 288.48 253.07C294.27 253.07 340.58 253.07 346.36 253.07C346.96 253.07 347.44 253.55 347.44 254.14C347.44 254.73 346.96 255.21 346.36 255.21C334.79 255.21 294.27 255.21 288.48 255.21Z" id="brDaQMnEH"></path><path d="M288.48 264.86C287.89 264.86 287.41 264.38 287.41 263.79C287.41 263.2 287.89 262.72 288.48 262.72C294.27 262.72 340.58 262.72 346.36 262.72C346.96 262.72 347.44 263.19 347.44 263.79C347.44 264.38 346.96 264.86 346.37 264.86C346.37 264.86 346.37 264.86 346.36 264.86C334.79 264.86 294.27 264.86 288.48 264.86Z" id="igPFfFdtZ"></path><path d="M61.61 216.63C62.22 216.6 62.7 216.09 62.68 215.49C62.66 214.91 62.19 214.44 61.61 214.42C61.01 214.45 60.53 214.96 60.55 215.56C60.57 216.14 61.04 216.61 61.61 216.63" id="cbGtJ2rbM"></path><path d="M61.61 228.42C62.22 228.4 62.7 227.89 62.68 227.28C62.66 226.7 62.19 226.23 61.61 226.21C61.01 226.24 60.53 226.75 60.55 227.35C60.57 227.93 61.04 228.4 61.61 228.42" id="e2JXt1hyEn"></path><path d="M61.61 240.21C62.22 240.19 62.7 239.68 62.68 239.07C62.66 238.49 62.19 238.03 61.61 238.01C61.01 238.03 60.53 238.54 60.55 239.14C60.57 239.72 61.04 240.19 61.61 240.21" id="c5cmklxPK"></path><path d="M61.61 252C62.22 251.98 62.7 251.47 62.68 250.86C62.66 250.28 62.19 249.82 61.61 249.8C61.01 249.82 60.53 250.33 60.55 250.94C60.57 251.51 61.04 251.98 61.61 252" id="dPokpCwsS"></path><path d="M61.61 263.79C62.22 263.77 62.7 263.26 62.68 262.65C62.66 262.07 62.19 261.61 61.61 261.59C61.01 261.61 60.53 262.12 60.55 262.73C60.57 263.3 61.04 263.77 61.61 263.79" id="c1Px4sTtiD"></path><path d="M61.61 275.58C62.22 275.56 62.7 275.05 62.68 274.44C62.66 273.86 62.19 273.4 61.61 273.38C61.01 273.4 60.53 273.91 60.55 274.52C60.57 275.1 61.04 275.56 61.61 275.58" id="f3p5tigxUP"></path><path d="M71.96 216.6C71.37 216.6 70.89 216.12 70.89 215.52C70.89 214.93 71.37 214.45 71.96 214.45C75.39 214.45 102.83 214.45 106.26 214.45C106.85 214.45 107.33 214.93 107.33 215.52C107.33 216.12 106.85 216.6 106.26 216.6C106.26 216.6 75.39 216.6 71.96 216.6Z" id="ckM2AThml"></path><path d="M71.96 228.39C71.37 228.39 70.89 227.91 70.89 227.32C70.89 226.73 71.36 226.25 71.96 226.24C71.96 226.24 71.96 226.24 71.96 226.24C75.39 226.24 102.83 226.24 106.26 226.24C106.85 226.24 107.34 226.72 107.34 227.31C107.34 227.9 106.86 228.39 106.27 228.39C106.27 228.39 106.26 228.39 106.26 228.39C106.26 228.39 75.39 228.39 71.96 228.39Z" id="g25yXNmWrL"></path><path d="M71.96 240.18C71.37 240.18 70.89 239.7 70.89 239.11C70.89 238.51 71.37 238.03 71.96 238.03C75.39 238.03 102.83 238.03 106.26 238.03C106.85 238.03 107.34 238.51 107.34 239.1C107.34 239.7 106.86 240.18 106.27 240.18C106.27 240.18 106.26 240.18 106.26 240.18C106.26 240.18 75.39 240.18 71.96 240.18Z" id="b3dxtQXki1"></path><path d="M71.96 251.97C71.37 251.97 70.89 251.49 70.89 250.9C70.89 250.3 71.37 249.82 71.96 249.82C75.39 249.82 102.83 249.82 106.26 249.82C106.85 249.82 107.34 250.3 107.34 250.89C107.34 251.49 106.86 251.97 106.27 251.97C106.27 251.97 106.26 251.97 106.26 251.97C106.26 251.97 75.39 251.97 71.96 251.97Z" id="bSZdBX6mq"></path><path d="M71.96 263.76C71.37 263.76 70.89 263.28 70.89 262.69C70.89 262.1 71.37 261.62 71.96 261.62C75.39 261.62 102.83 261.62 106.26 261.62C106.85 261.61 107.34 262.09 107.34 262.68C107.34 263.28 106.86 263.76 106.27 263.76C106.27 263.76 106.26 263.76 106.26 263.76C106.26 263.76 75.39 263.76 71.96 263.76Z" id="a3HUuyGrS9"></path><path d="M71.96 275.55C71.37 275.55 70.89 275.07 70.89 274.48C70.89 273.89 71.36 273.41 71.96 273.41C71.96 273.41 71.96 273.41 71.96 273.41C75.39 273.41 102.83 273.41 106.26 273.41C106.85 273.4 107.34 273.88 107.34 274.48C107.34 275.07 106.86 275.55 106.27 275.55C106.27 275.55 106.26 275.55 106.26 275.55C106.26 275.55 75.39 275.55 71.96 275.55Z" id="b1iTKnAm1s"></path><path d="M465.85 137.86L466.08 137.89L466.31 137.92L466.54 137.96L466.76 138.01L466.98 138.07L467.2 138.14L467.41 138.22L467.62 138.3L467.82 138.39L468.02 138.49L468.22 138.6L468.41 138.71L468.6 138.83L468.78 138.96L468.95 139.09L469.12 139.23L469.29 139.38L469.45 139.53L469.6 139.69L469.75 139.86L469.89 140.03L470.02 140.2L470.15 140.38L470.27 140.57L470.39 140.76L470.49 140.96L470.59 141.16L470.68 141.36L470.77 141.57L470.84 141.78L470.91 142L470.97 142.22L471.02 142.44L471.06 142.67L471.09 142.9L471.12 143.13L471.13 143.36L471.14 143.6L471.14 202.98L471.13 203.21L471.12 203.45L471.09 203.68L471.06 203.91L471.02 204.14L470.97 204.36L470.91 204.58L470.84 204.79L470.77 205.01L470.68 205.22L470.59 205.42L470.49 205.62L470.39 205.82L470.27 206.01L470.15 206.19L470.02 206.37L469.89 206.55L469.75 206.72L469.6 206.88L469.45 207.04L469.29 207.2L469.12 207.34L468.95 207.48L468.78 207.62L468.6 207.75L468.41 207.87L468.22 207.98L468.02 208.09L467.82 208.19L467.62 208.28L467.41 208.36L467.2 208.44L466.98 208.5L466.76 208.56L466.54 208.61L466.31 208.66L466.08 208.69L465.85 208.71L465.62 208.73L465.38 208.73L442.31 208.73L442.07 208.73L441.83 208.71L441.6 208.69L441.37 208.66L441.15 208.61L440.92 208.56L440.7 208.5L440.49 208.44L440.28 208.36L440.07 208.28L439.86 208.19L439.66 208.09L439.47 207.98L439.28 207.87L439.09 207.75L438.91 207.62L438.73 207.49L438.56 207.34L438.4 207.2L438.24 207.04L438.08 206.89L437.94 206.72L437.8 206.55L437.66 206.37L437.53 206.19L437.41 206.01L437.3 205.82L437.19 205.62L437.1 205.42L437 205.22L436.92 205.01L436.84 204.79L436.78 204.58L436.72 204.36L436.67 204.14L436.63 203.91L436.59 203.68L436.57 203.45L436.55 203.21L436.55 202.98L436.55 143.6L436.55 143.36L436.57 143.13L436.59 142.9L436.63 142.67L436.67 142.44L436.72 142.22L436.78 142L436.84 141.78L436.92 141.57L437 141.36L437.1 141.16L437.19 140.96L437.3 140.76L437.41 140.57L437.53 140.38L437.66 140.2L437.8 140.03L437.94 139.86L438.08 139.69L438.24 139.53L438.4 139.38L438.56 139.23L438.73 139.09L438.91 138.96L439.09 138.83L439.28 138.71L439.47 138.6L439.66 138.49L439.86 138.39L440.07 138.3L440.28 138.22L440.49 138.14L440.7 138.07L440.92 138.01L441.15 137.96L441.37 137.92L441.6 137.89L441.83 137.86L442.07 137.85L442.31 137.85L445.11 137.85L445.15 137.85L445.19 137.85L445.24 137.85L445.28 137.86L445.32 137.87L445.36 137.88L445.4 137.89L445.44 137.9L445.48 137.91L445.52 137.93L445.56 137.95L445.6 137.96L445.63 137.98L445.67 138.01L445.71 138.03L445.74 138.05L445.77 138.08L445.8 138.1L445.83 138.13L445.86 138.16L445.89 138.19L445.92 138.22L445.95 138.25L445.97 138.28L445.99 138.32L446.02 138.35L446.04 138.39L446.06 138.42L446.08 138.46L446.09 138.5L446.11 138.54L446.12 138.58L446.14 138.62L446.15 138.66L446.16 138.7L446.16 138.74L446.17 138.79L446.17 138.83L446.18 138.87L446.18 138.92L446.18 138.93L446.18 138.94L446.18 138.95L446.18 138.96L446.18 138.97L446.18 138.98L446.18 138.99L446.17 139L446.17 139.01L446.17 139.02L446.17 139.03L446.17 139.04L446.17 139.05L446.17 139.06L446.17 139.07L446.17 139.08L446.16 139.09L446.16 139.1L446.16 139.11L446.16 139.12L446.16 139.13L446.15 139.14L446.15 139.15L446.15 139.16L446.15 139.17L446.14 139.18L446.14 139.19L446.14 139.2L446.14 139.21L446.13 139.22L446.13 139.23L446.13 139.24L446.12 139.25L446.12 139.26L446.12 139.27L446.11 139.28L446.11 139.29L446.11 139.3L446.1 139.31L446.1 139.32L446.08 139.36L446.07 139.41L446.05 139.45L446.04 139.5L446.03 139.54L446.03 139.59L446.02 139.63L446.02 139.68L446.01 139.72L446.01 139.77L446.02 139.81L446.02 139.86L446.02 139.9L446.03 139.95L446.04 139.99L446.05 140.03L446.06 140.08L446.07 140.12L446.09 140.16L446.1 140.2L446.12 140.24L446.14 140.28L446.16 140.32L446.19 140.36L446.21 140.4L446.23 140.43L446.26 140.47L446.29 140.51L446.32 140.54L446.35 140.57L446.38 140.6L446.42 140.63L446.45 140.66L446.49 140.69L446.53 140.72L446.57 140.74L446.61 140.76L446.65 140.79L446.69 140.81L446.73 140.83L446.74 140.83L446.75 140.83L446.76 140.84L446.77 140.84L446.79 140.85L446.8 140.85L446.81 140.85L446.82 140.86L446.83 140.86L446.84 140.86L446.85 140.87L446.86 140.87L446.87 140.87L446.88 140.87L446.89 140.88L446.9 140.88L446.91 140.88L446.92 140.88L446.93 140.89L446.95 140.89L446.96 140.89L446.97 140.89L446.98 140.9L446.99 140.9L447 140.9L447.01 140.9L447.02 140.9L447.03 140.9L447.04 140.9L447.06 140.91L447.07 140.91L447.08 140.91L447.09 140.91L447.1 140.91L447.11 140.91L447.12 140.91L447.13 140.91L447.14 140.91L447.16 140.91L447.17 140.91L460.32 140.91L460.37 140.91L460.42 140.91L460.46 140.9L460.51 140.9L460.55 140.89L460.6 140.88L460.64 140.87L460.69 140.85L460.73 140.84L460.77 140.82L460.81 140.8L460.85 140.78L460.89 140.76L460.93 140.74L460.97 140.71L461 140.69L461.04 140.66L461.07 140.63L461.11 140.6L461.14 140.57L461.17 140.54L461.2 140.51L461.23 140.47L461.25 140.44L461.28 140.4L461.3 140.36L461.33 140.32L461.35 140.28L461.37 140.24L461.38 140.2L461.4 140.16L461.42 140.12L461.43 140.08L461.44 140.03L461.45 139.99L461.46 139.94L461.47 139.9L461.47 139.85L461.47 139.8L461.47 139.75L461.47 139.74L461.47 139.73L461.47 139.72L461.47 139.71L461.47 139.7L461.47 139.69L461.47 139.68L461.47 139.66L461.47 139.65L461.47 139.64L461.47 139.63L461.47 139.62L461.47 139.61L461.46 139.6L461.46 139.59L461.46 139.58L461.46 139.57L461.46 139.56L461.46 139.54L461.45 139.53L461.45 139.52L461.45 139.51L461.45 139.5L461.44 139.49L461.44 139.48L461.44 139.47L461.44 139.46L461.43 139.45L461.43 139.44L461.43 139.43L461.42 139.42L461.42 139.4L461.42 139.39L461.41 139.38L461.41 139.37L461.41 139.36L461.4 139.35L461.4 139.34L461.39 139.33L461.39 139.32L461.37 139.28L461.36 139.24L461.35 139.2L461.34 139.16L461.33 139.11L461.32 139.07L461.32 139.03L461.31 138.99L461.31 138.95L461.31 138.9L461.31 138.86L461.31 138.82L461.32 138.78L461.33 138.74L461.33 138.7L461.34 138.66L461.35 138.62L461.37 138.58L461.38 138.54L461.39 138.5L461.41 138.46L461.43 138.43L461.45 138.39L461.47 138.35L461.49 138.32L461.52 138.29L461.54 138.25L461.57 138.22L461.59 138.19L461.62 138.16L461.65 138.13L461.68 138.1L461.72 138.08L461.75 138.05L461.79 138.03L461.82 138L461.86 137.98L461.9 137.96L461.94 137.94L461.98 137.92L461.99 137.92L462 137.92L462.01 137.91L462.02 137.91L462.03 137.91L462.04 137.9L462.05 137.9L462.06 137.9L462.07 137.89L462.08 137.89L462.09 137.89L462.1 137.88L462.11 137.88L462.12 137.88L462.13 137.88L462.14 137.87L462.15 137.87L462.16 137.87L462.17 137.87L462.18 137.87L462.19 137.86L462.2 137.86L462.21 137.86L462.22 137.86L462.23 137.86L462.24 137.86L462.25 137.85L462.26 137.85L462.27 137.85L462.28 137.85L462.29 137.85L462.3 137.85L462.31 137.85L462.32 137.85L462.33 137.85L462.34 137.85L462.35 137.85L462.36 137.85L462.37 137.85L462.38 137.85L465.38 137.85L465.62 137.85L465.85 137.86ZM463.6 140.12L463.58 140.26L463.56 140.39L463.53 140.52L463.5 140.65L463.46 140.77L463.41 140.9L463.37 141.02L463.32 141.14L463.26 141.25L463.2 141.37L463.13 141.48L463.06 141.59L462.99 141.69L462.91 141.79L462.83 141.89L462.75 141.99L462.66 142.08L462.57 142.17L462.47 142.25L462.38 142.33L462.27 142.41L462.17 142.49L462.06 142.56L461.95 142.62L461.84 142.68L461.73 142.74L461.61 142.79L461.49 142.84L461.37 142.88L461.24 142.92L461.11 142.96L460.99 142.99L460.86 143.01L460.73 143.03L460.59 143.04L460.46 143.05L460.32 143.06L447.17 143.06L447.03 143.05L446.9 143.04L446.76 143.03L446.63 143.01L446.5 142.99L446.37 142.96L446.25 142.92L446.12 142.88L446 142.84L445.88 142.79L445.76 142.74L445.65 142.68L445.54 142.62L445.43 142.56L445.32 142.49L445.21 142.41L445.11 142.33L445.02 142.25L444.92 142.17L444.83 142.08L444.74 141.99L444.66 141.89L444.58 141.79L444.5 141.69L444.43 141.59L444.36 141.48L444.29 141.37L444.23 141.25L444.17 141.14L444.12 141.02L444.07 140.9L444.03 140.77L443.99 140.65L443.96 140.52L443.93 140.39L443.91 140.26L443.89 140.12L443.88 139.99L442.31 139.99L442.15 139.99L442 140L441.84 140.02L441.69 140.04L441.54 140.07L441.4 140.11L441.25 140.15L441.11 140.19L440.97 140.25L440.83 140.3L440.7 140.37L440.57 140.43L440.44 140.51L440.32 140.59L440.2 140.67L440.08 140.76L439.97 140.85L439.86 140.95L439.75 141.05L439.65 141.15L439.56 141.26L439.46 141.38L439.38 141.49L439.29 141.61L439.21 141.74L439.14 141.86L439.07 141.99L439.01 142.13L438.95 142.26L438.9 142.4L438.85 142.54L438.81 142.69L438.78 142.84L438.75 142.98L438.72 143.14L438.71 143.29L438.7 143.44L438.69 143.6L438.69 202.98L438.7 203.13L438.71 203.29L438.72 203.44L438.75 203.59L438.78 203.74L438.81 203.89L438.85 204.03L438.9 204.17L438.95 204.31L439.01 204.45L439.07 204.58L439.14 204.71L439.21 204.84L439.29 204.96L439.37 205.08L439.46 205.2L439.56 205.31L439.65 205.42L439.75 205.53L439.86 205.63L439.97 205.73L440.08 205.82L440.2 205.91L440.32 205.99L440.44 206.07L440.57 206.14L440.7 206.21L440.83 206.27L440.97 206.33L441.11 206.38L441.25 206.43L441.4 206.47L441.54 206.51L441.69 206.54L441.84 206.56L442 206.57L442.15 206.58L442.31 206.59L465.38 206.59L465.54 206.58L465.69 206.57L465.84 206.56L466 206.54L466.15 206.51L466.29 206.47L466.44 206.43L466.58 206.38L466.72 206.33L466.85 206.27L466.99 206.21L467.12 206.14L467.24 206.07L467.37 205.99L467.49 205.91L467.61 205.82L467.72 205.73L467.83 205.63L467.93 205.53L468.03 205.42L468.13 205.31L468.22 205.2L468.31 205.08L468.39 204.96L468.47 204.84L468.55 204.71L468.62 204.58L468.68 204.45L468.74 204.31L468.79 204.17L468.83 204.03L468.88 203.89L468.91 203.74L468.94 203.59L468.96 203.44L468.98 203.29L468.99 203.13L468.99 202.98L468.99 143.6L468.99 143.44L468.98 143.29L468.96 143.14L468.94 142.98L468.91 142.84L468.88 142.69L468.83 142.54L468.79 142.4L468.74 142.26L468.68 142.13L468.61 141.99L468.55 141.86L468.47 141.74L468.39 141.61L468.31 141.49L468.22 141.38L468.13 141.26L468.03 141.15L467.93 141.05L467.83 140.95L467.72 140.85L467.61 140.76L467.49 140.67L467.37 140.59L467.24 140.51L467.12 140.43L466.99 140.37L466.85 140.3L466.72 140.25L466.58 140.19L466.44 140.15L466.29 140.11L466.14 140.07L466 140.04L465.84 140.02L465.69 140L465.54 139.99L465.38 139.99L463.61 139.99L463.6 140.12Z" id="bq04dXE3C"></path><path d="M397.67 120.16C397.67 119.57 398.15 119.09 398.74 119.09C399.33 119.09 399.81 119.57 399.81 120.16C399.81 121.99 399.81 131.13 399.81 147.58C403.54 143.86 405.6 141.79 406.02 141.37C406.44 140.96 407.12 140.96 407.53 141.37C407.95 141.79 407.95 142.47 407.53 142.89C406.73 143.69 400.3 150.13 399.5 150.93C399.08 151.35 398.4 151.35 397.98 150.93C397.78 150.73 397.67 150.46 397.67 150.17C397.67 150.17 397.67 123.16 397.67 120.16Z" id="dyVKt4yMe"></path><path d="M391.23 141.6C391.52 141.6 391.79 141.71 391.99 141.91C392.74 142.66 398.75 148.66 399.5 149.41C399.91 149.83 399.91 150.51 399.5 150.93C399.08 151.35 398.4 151.35 397.98 150.93C397.23 150.18 391.23 144.18 390.48 143.43C390.28 143.23 390.16 142.95 390.16 142.67C390.16 142.08 390.64 141.6 391.23 141.6Z" id="g18tivd2JO"></path><path d="M437.48 264.85C435.09 251.02 435.09 236.89 437.48 223.06C440.99 223.06 469.02 223.06 472.53 223.06C468.58 236.71 468.58 251.2 472.53 264.85C465.52 264.85 440.99 264.85 437.48 264.85Z" id="b16rmslgPk"></path><path d="M351.02 189.07C353.42 175.24 353.42 161.11 351.02 147.28C347.52 147.28 319.48 147.28 315.98 147.28C319.93 160.93 319.93 175.42 315.98 189.07C322.99 189.07 347.52 189.07 351.02 189.07Z" id="h1IN3eWXjG"></path><path d="M324.17 159.46C323.8 159.46 323.5 158.98 323.5 158.38C323.5 157.79 323.8 157.31 324.17 157.31C326.3 157.31 343.36 157.31 345.49 157.31C345.86 157.31 346.16 157.79 346.16 158.38C346.16 158.98 345.86 159.46 345.49 159.46C341.23 159.46 326.3 159.46 324.17 159.46Z" id="a52akzdw0e"></path><path d="M324.17 169.4C323.8 169.4 323.5 168.92 323.5 168.33C323.5 167.74 323.8 167.26 324.17 167.26C326.3 167.26 343.36 167.26 345.49 167.26C345.86 167.26 346.16 167.74 346.16 168.33C346.16 168.92 345.86 169.4 345.49 169.4C341.23 169.4 326.3 169.4 324.17 169.4Z" id="dULQfciBs"></path><path d="M443.42 234.38C443.06 234.38 442.76 233.9 442.76 233.31C442.76 232.71 443.06 232.23 443.42 232.23C445.56 232.23 462.62 232.23 464.75 232.23C465.12 232.23 465.42 232.71 465.42 233.31C465.42 233.9 465.12 234.38 464.75 234.38C460.49 234.38 445.56 234.38 443.42 234.38Z" id="c2cFiW7Zxr"></path><path d="M443.42 244.32C443.06 244.32 442.76 243.84 442.76 243.25C442.76 242.66 443.06 242.18 443.42 242.18C445.56 242.18 462.62 242.18 464.75 242.18C465.12 242.18 465.42 242.66 465.42 243.25C465.42 243.84 465.12 244.32 464.75 244.32C460.49 244.32 445.56 244.32 443.42 244.32Z" id="e1TUibFgF6"></path><path d="M324.17 179.34C323.8 179.34 323.5 178.86 323.5 178.27C323.5 177.68 323.8 177.2 324.17 177.2C326.3 177.2 343.36 177.2 345.49 177.2C345.86 177.2 346.16 177.68 346.16 178.27C346.16 178.86 345.86 179.34 345.49 179.34C341.23 179.34 326.3 179.34 324.17 179.34Z" id="byxjwP44n"></path><path d="M201.03 187.65C203.43 173.83 203.43 159.69 201.03 145.87C197.53 145.87 169.49 145.87 165.99 145.87C169.94 159.51 169.94 174 165.99 187.65C173 187.65 197.53 187.65 201.03 187.65Z" id="imSZeTZSG"></path><path d="M174.18 158.04C173.81 158.04 173.51 157.56 173.51 156.97C173.51 156.38 173.81 155.9 174.18 155.9C176.31 155.9 193.37 155.9 195.5 155.9C195.87 155.9 196.17 156.38 196.17 156.97C196.17 157.56 195.87 158.04 195.5 158.04C191.24 158.04 176.31 158.04 174.18 158.04Z" id="aRtcRPZQD"></path><path d="M174.18 167.98C173.81 167.98 173.51 167.5 173.51 166.91C173.51 166.32 173.81 165.84 174.18 165.84C176.31 165.84 193.37 165.84 195.5 165.84C195.87 165.84 196.17 166.32 196.17 166.91C196.17 167.5 195.87 167.98 195.5 167.98C191.24 167.98 176.31 167.98 174.18 167.98Z" id="bILFmwopL"></path><path d="M174.18 177.93C173.81 177.93 173.51 177.45 173.51 176.86C173.51 176.26 173.81 175.78 174.18 175.78C176.31 175.78 193.37 175.78 195.5 175.78C195.87 175.78 196.17 176.26 196.17 176.86C196.17 177.45 195.87 177.93 195.5 177.93C191.24 177.93 176.31 177.93 174.18 177.93Z" id="aVF7Rzfag"></path><path d="M493.87 174.89C493.87 174.89 472.34 191.81 483.11 195.66C483.11 195.66 500.79 181.82 500.79 181.82C499.41 180.43 495.26 176.28 493.87 174.89Z" id="cTU1z38h"></path><path d="M495.06 168.3C492.29 172.92 490.75 175.48 490.44 175.99C490.44 175.99 498.13 175.99 499.67 187.53C500.08 187.02 502.13 184.45 505.82 179.84L495.06 168.3Z" id="a18BoHctJd"></path><path d="M598.11 366.71L588.88 372.09L585.03 369.79L585.8 343.64L597.34 343.64L597.34 343.64L598.11 366.71Z" id="c2v9OWWCa6"></path><path d="M542.74 337.49L544.27 362.1L522.74 371.32C523.66 363.48 524.18 359.12 524.28 358.25C524.28 358.25 530.43 348.25 528.89 337.49C530.74 337.49 535.35 337.49 542.74 337.49Z" id="aFxJlvjQ3"></path><path d="M575.8 152.15C575.8 152.15 588.11 184.45 590.42 204.45C590.42 204.45 596.57 277.5 596.57 277.5C597.08 282.07 599.64 304.88 604.26 345.95L582.73 349.02L573.5 279.81L552.73 211.37L548.12 279.81L544.27 342.1L524.28 342.87L522.74 278.27L514.28 195.99L518.9 156.77C549.25 154.31 568.22 152.77 575.8 152.15Z" id="aqit4DTFK"></path><path d="M587.34 368.25C587.34 368.25 588.6 355.33 597.97 362.56C598.08 362.48 598.64 362.07 599.64 361.33C604.26 371.48 606.82 377.12 607.33 378.25C607.33 378.25 616.56 391.32 600.41 392.86C600.41 392.86 585.8 378.25 585.8 378.25C585.7 377.78 585.19 375.48 584.26 371.32L585.03 366.79C586.26 367.57 587.03 368.05 587.34 368.25Z" id="b2ZZZLlJV"></path><path d="M548.89 363.63C548.89 371.32 548.12 372.09 548.12 372.09C546.97 372.4 537.74 374.86 536.58 375.17C536.58 375.17 528.89 374.4 524.28 379.02C524.28 379.02 496.6 386.71 496.6 380.55C496.6 374.4 515.82 364.4 515.82 364.4C515.82 364.4 521.53 354.76 525.6 355.74C529.66 356.71 531.2 358.25 531.2 359.02C531.2 359.79 528.89 365.17 528.89 365.17C528.89 365.17 541.97 362.1 542.74 352.87C546.59 355.07 548.95 359.19 548.89 363.63Z" id="i1oKRXG1dv"></path><path d="M541.2 57.57C530.58 57.57 521.97 48.96 521.97 38.34C521.97 27.72 530.58 19.11 541.2 19.11C551.82 19.11 560.42 27.72 560.42 38.34C560.42 48.96 551.82 57.57 541.2 57.57Z" id="f1020HXZ6F"></path><path d="M563.88 62.56C550.04 82.4 542.35 93.43 540.81 95.63C540.81 95.63 539.28 59.49 534.66 53.34C530.05 47.18 555.43 43.34 555.43 43.34C556.55 45.9 559.37 52.31 563.88 62.56Z" id="bioBbECB5"></path><path d="M548.5 73.33L551.58 74.1L555.43 71.02L560.81 54.1L568.5 59.49L578.5 160.23L516.21 161.77L524.66 91.79L532.35 71.79L537.91 64.45L541.58 75.64L544.66 83.33L544.66 83.33L548.5 73.33Z" id="e1si9EDZuL"></path><path d="M562.43 126.04C563.84 84.3 564.62 61.12 564.78 56.48C564.78 56.48 569.35 56.83 570.89 59.14C570.89 59.14 597.8 66.06 597.8 66.06C597.34 73.21 593.65 130.43 593.19 137.58C593.19 137.58 612.41 194.49 605.49 197.56C605.49 197.56 586.27 199.87 586.27 199.87C583.09 190.03 575.14 165.42 562.43 126.04Z" id="aFUIXdjvC"></path><path d="M525.05 117.55L533.21 70.67L515.05 82.94L519.67 116.78C517.36 130.62 516.08 138.31 515.82 139.85C515.82 139.85 501.21 203.68 505.82 205.99C505.82 205.99 515.82 205.99 515.82 205.99C516.44 201.68 519.51 180.15 525.05 141.39L525.05 117.55Z" id="a67S1ttjn"></path><path d="M520.43 81.41L515.05 82.94L512.74 113.7L508.9 140.62C497.83 160.46 491.67 171.48 490.44 173.69C490.44 173.69 499.67 167.54 503.52 185.22C504.87 182.86 511.65 171.07 523.84 149.83L520.43 81.41Z" id="b3lin04aAV"></path><path d="M580.42 168.3C580.42 168.3 558.89 185.22 569.65 189.07C569.65 189.07 587.34 175.23 587.34 175.23C585.96 173.84 581.8 169.69 580.42 168.3Z" id="b5dKCa910b"></path><path d="M586.57 185.22L577.34 169.07L581.19 162.15L593.49 176.76L593.49 176.76L586.57 185.22Z" id="e4ApbWG1JN"></path><path d="M591.95 69.1C595.64 67.26 597.7 66.23 598.11 66.02C598.11 66.02 602.72 72.18 603.49 77.56C603.49 77.56 608.1 89.86 608.1 93.71C608.1 93.71 618.87 133.7 618.87 133.7C616.41 138.7 596.72 178.69 594.26 183.68C594.26 183.68 588.88 165.23 577.34 163.69C578.62 161.9 585.03 152.92 596.57 136.77L585.8 117.55L591.95 69.1Z" id="i1bxBXkHms"></path><path d="M560.92 18.57C560.92 18.57 553.34 10.23 542.79 10.95C543.09 10.62 545.46 8.01 545.76 7.69C545.76 7.69 538.51 4.78 531.92 12.4C528.45 16.41 524.44 21.12 521.94 26.42C521.68 26.42 520.39 26.42 518.06 26.42L519.68 29.99L514.01 33.56C517.5 33.17 519.44 32.96 519.83 32.92C519.48 34.87 519.43 36.86 519.67 38.83C519.92 40.8 520.93 42.6 522.48 43.84C522.48 43.84 522.48 43.84 522.48 43.84C522.48 43.84 526.97 34.54 526.97 33.08C526.97 33.45 526.97 36.35 526.97 36.71C526.97 36.71 530.6 33.45 530.6 31.27C530.73 31.44 531.39 32.29 532.57 33.81L533.56 29.82L545.76 33.81L543.78 30.55L551.36 31.63C549.58 29.24 548.59 27.91 548.39 27.64C548.39 27.64 556.96 32.36 557.29 36.35C557.62 40.34 560.13 44.12 560.13 44.12C560.13 44.12 566.85 25.47 557.29 20.02C558.02 19.73 560.56 18.72 560.92 18.57Z" id="akXZg6jN"></path><path d="M556.96 37.96C555.77 37.96 554.81 36.75 554.81 35.26C554.81 33.78 555.77 32.57 556.96 32.57C558.15 32.57 559.12 33.78 559.12 35.26C559.12 36.75 558.15 37.96 556.96 37.96Z" id="dbNNhoUsP"></path><path d="M219.45 201.35C219.45 201.35 219.45 201.35 219.45 201.35C219.45 201.66 219.45 204.15 219.45 204.46C219.45 204.46 219.45 204.46 219.45 204.46C214.01 204.46 170.54 204.46 165.11 204.46C165.11 204.46 165.11 204.46 165.11 204.46C165.11 204.15 165.11 201.66 165.11 201.35C165.11 201.35 165.11 201.35 165.11 201.35C175.98 201.35 214.01 201.35 219.45 201.35Z" id="c201OEF1YI"></path><path d="M249.02 212.72C249.02 212.72 249.02 212.72 249.02 212.72C249.02 213.03 249.02 215.53 249.02 215.84C249.02 215.84 249.02 215.84 249.02 215.84C240.62 215.84 173.5 215.84 165.11 215.84C165.11 215.84 165.11 215.84 165.11 215.84C165.11 215.53 165.11 213.03 165.11 212.72C165.11 212.72 165.11 212.72 165.11 212.72C181.89 212.72 240.62 212.72 249.02 212.72Z" id="a5DbhWBoa"></path><path d="M233.49 223.44C233.49 223.44 233.49 223.44 233.49 223.44C233.49 223.75 233.49 226.25 233.49 226.56C233.49 226.56 233.49 226.56 233.49 226.56C226.65 226.56 171.95 226.56 165.11 226.56C165.11 226.56 165.11 226.56 165.11 226.56C165.11 226.25 165.11 223.75 165.11 223.44C165.11 223.44 165.11 223.44 165.11 223.44C178.79 223.44 226.65 223.44 233.49 223.44Z" id="d1pvXDIJm"></path><path d="M205.03 234.12C205.03 234.12 205.03 234.12 205.03 234.12C205.03 234.43 205.03 236.93 205.03 237.24C205.03 237.24 205.03 237.24 205.03 237.24C201.04 237.24 169.1 237.24 165.11 237.24C165.11 237.24 165.11 237.24 165.11 237.24C165.11 236.93 165.11 234.43 165.11 234.12C165.11 234.12 165.11 234.12 165.11 234.12C173.09 234.12 201.04 234.12 205.03 234.12Z" id="a30hOHdkMF"></path><path d="M225.36 244.8C225.36 244.8 225.36 244.8 225.36 244.8C225.36 245.11 225.36 247.61 225.36 247.92C225.36 247.92 225.36 247.92 225.36 247.92C219.33 247.92 171.14 247.92 165.11 247.92C165.11 247.92 165.11 247.92 165.11 247.92C165.11 247.61 165.11 245.11 165.11 244.8C165.11 244.8 165.11 244.8 165.11 244.8C177.16 244.8 219.33 244.8 225.36 244.8Z" id="f3NYMVZzlg"></path><path d="M147 200.24C147 200.24 147 200.24 147 200.24C147 200.9 147 206.22 147 206.89C147 206.89 147 206.89 147 206.89C146.33 206.89 141.01 206.89 140.35 206.89C140.35 206.89 140.35 206.89 140.35 206.89C140.35 206.22 140.35 200.9 140.35 200.24C140.35 200.24 140.35 200.24 140.35 200.24C141.68 200.24 146.33 200.24 147 200.24Z" id="bqM3fxBDO"></path><path d="M147 210.96C147 210.96 147 210.96 147 210.96C147 211.62 147 216.94 147 217.61C147 217.61 147 217.61 147 217.61C146.33 217.61 141.01 217.61 140.35 217.61C140.35 217.61 140.35 217.61 140.35 217.61C140.35 216.94 140.35 211.62 140.35 210.96C140.35 210.96 140.35 210.96 140.35 210.96C141.68 210.96 146.33 210.96 147 210.96Z" id="a258dU9dms"></path><path d="M147 221.67C147 221.67 147 221.67 147 221.67C147 222.34 147 227.66 147 228.33C147 228.33 147 228.33 147 228.33C146.33 228.33 141.01 228.33 140.35 228.33C140.35 228.33 140.35 228.33 140.35 228.33C140.35 227.66 140.35 222.34 140.35 221.67C140.35 221.67 140.35 221.67 140.35 221.67C141.68 221.67 146.33 221.67 147 221.67Z" id="a1fwF43ync"></path><path d="M147 232.39C147 232.39 147 232.39 147 232.39C147 233.06 147 238.38 147 239.05C147 239.05 147 239.05 147 239.05C146.33 239.05 141.01 239.05 140.35 239.05C140.35 239.05 140.35 239.05 140.35 239.05C140.35 238.38 140.35 233.06 140.35 232.39C140.35 232.39 140.35 232.39 140.35 232.39C141.68 232.39 146.33 232.39 147 232.39Z" id="d5LxKmG7iX"></path><path d="M147 243.11C147 243.11 147 243.11 147 243.11C147 243.78 147 249.1 147 249.77C147 249.77 147 249.77 147 249.77C146.33 249.77 141.01 249.77 140.35 249.77C140.35 249.77 140.35 249.77 140.35 249.77C140.35 249.1 140.35 243.78 140.35 243.11C140.35 243.11 140.35 243.11 140.35 243.11C141.68 243.11 146.33 243.11 147 243.11Z" id="a3K2tQ4Lh"></path><path d="M212.39 242.95C211.37 237.03 211.37 230.97 212.39 225.05C213.89 225.05 225.9 225.05 227.41 225.05C225.71 230.9 225.71 237.1 227.41 242.95C224.4 242.95 213.89 242.95 212.39 242.95Z" id="bduTAN652"></path><path d="M88.49 195.75C72.51 195.75 59.57 182.81 59.57 166.83C59.57 150.86 72.51 137.91 88.49 137.91C104.46 137.91 117.41 150.86 117.41 166.83C117.41 182.81 104.46 195.75 88.49 195.75Z" id="dYAUEIGDA"></path><path d="M86.87 139.55L86.87 136.31L90.1 136.31L90.1 139.55L86.87 139.55ZM87.52 138.9L89.46 138.9L89.46 136.96L87.52 136.96L87.52 138.9Z" id="aLXMiFsb"></path><path d="M106.66 137.61C106.66 137.61 106.66 137.61 106.66 137.61C106.66 137.67 106.66 138.19 106.66 138.25C106.66 138.25 106.66 138.25 106.66 138.25C104.95 138.25 91.25 138.25 89.53 138.25C89.53 138.25 89.53 138.25 89.53 138.25C89.53 138.19 89.53 137.67 89.53 137.61C89.53 137.61 89.53 137.61 89.53 137.61C92.96 137.61 104.95 137.61 106.66 137.61Z" id="f48tNYw82d"></path><path d="M106.66 138.6C106.29 138.6 105.99 138.3 105.99 137.93C105.99 137.56 106.29 137.26 106.66 137.26C107.04 137.26 107.34 137.56 107.34 137.93C107.34 138.3 107.04 138.6 106.66 138.6Z" id="a7JGfSRUaW"></path><path d="M87.27 137.61C87.27 137.61 87.27 137.61 87.27 137.61C87.27 137.67 87.27 138.19 87.27 138.25C87.27 138.25 87.27 138.25 87.27 138.25C85.59 138.25 72.14 138.25 70.46 138.25C70.46 138.25 70.46 138.25 70.46 138.25C70.46 138.19 70.46 137.67 70.46 137.61C70.46 137.61 70.46 137.61 70.46 137.61C73.82 137.61 85.59 137.61 87.27 137.61Z" id="aoSd8q5Hb"></path><path d="M70.46 138.6C70.09 138.6 69.79 138.3 69.79 137.93C69.79 137.56 70.09 137.26 70.46 137.26C70.83 137.26 71.13 137.56 71.13 137.93C71.13 138.3 70.83 138.6 70.46 138.6Z" id="b6Lpk3MRab"></path><path d="M115.71 168.37L115.71 165.14L118.95 165.14L118.95 168.37L115.71 168.37ZM116.36 167.73L118.3 167.73L118.3 165.79L116.36 165.79L116.36 167.73Z" id="eGvgNU7yf"></path><path d="M117.65 168.13C117.65 168.13 117.65 168.13 117.65 168.13C117.65 169.81 117.65 183.25 117.65 184.94C117.65 184.94 117.65 184.94 117.65 184.94C117.59 184.94 117.07 184.94 117.01 184.94C117.01 184.94 117.01 184.94 117.01 184.94C117.01 183.25 117.01 169.81 117.01 168.13C117.01 168.13 117.01 168.13 117.01 168.13C117.14 168.13 117.59 168.13 117.65 168.13Z" id="b5RtnDuUsd"></path><path d="M117.33 185.61C116.96 185.61 116.66 185.31 116.66 184.94C116.66 184.56 116.96 184.26 117.33 184.26C117.7 184.26 118 184.56 118 184.94C118 185.31 117.7 185.61 117.33 185.61Z" id="cP6VLMje"></path><path d="M117.65 148.73C117.65 148.73 117.65 148.73 117.65 148.73C117.65 150.41 117.65 163.86 117.65 165.54C117.65 165.54 117.65 165.54 117.65 165.54C117.59 165.54 117.07 165.54 117.01 165.54C117.01 165.54 117.01 165.54 117.01 165.54C117.01 163.86 117.01 150.41 117.01 148.73C117.01 148.73 117.01 148.73 117.01 148.73C117.14 148.73 117.59 148.73 117.65 148.73Z" id="a1WaTay5LD"></path><path d="M117.33 149.41C116.96 149.41 116.66 149.1 116.66 148.73C116.66 148.36 116.96 148.06 117.33 148.06C117.7 148.06 118 148.36 118 148.73C118 149.1 117.7 149.41 117.33 149.41Z" id="a32q0EILih"></path><path d="M57.85 168.37L57.85 165.14L61.09 165.14L61.09 168.37L57.85 168.37ZM58.5 167.73L60.44 167.73L60.44 165.79L58.5 165.79L58.5 167.73Z" id="fhWsNA05N"></path><path d="M59.79 168.13C59.79 168.13 59.79 168.13 59.79 168.13C59.79 169.81 59.79 183.25 59.79 184.94C59.79 184.94 59.79 184.94 59.79 184.94C59.73 184.94 59.21 184.94 59.15 184.94C59.15 184.94 59.15 184.94 59.15 184.94C59.15 183.25 59.15 169.81 59.15 168.13C59.15 168.13 59.15 168.13 59.15 168.13C59.28 168.13 59.73 168.13 59.79 168.13Z" id="a2Pl0zkENJ"></path><path d="M59.47 185.61C59.1 185.61 58.8 185.31 58.8 184.94C58.8 184.56 59.1 184.26 59.47 184.26C59.84 184.26 60.14 184.56 60.14 184.94C60.14 185.31 59.84 185.61 59.47 185.61Z" id="bq2tFuEzN"></path><path d="M59.79 148.09C59.79 148.09 59.79 148.09 59.79 148.09C59.79 149.83 59.79 163.8 59.79 165.54C59.79 165.54 59.79 165.54 59.79 165.54C59.73 165.54 59.21 165.54 59.15 165.54C59.15 165.54 59.15 165.54 59.15 165.54C59.15 163.8 59.15 149.83 59.15 148.09C59.15 148.09 59.15 148.09 59.15 148.09C59.28 148.09 59.73 148.09 59.79 148.09Z" id="bVzBqsvg3"></path><path d="M59.47 149.41C59.1 149.41 58.8 149.1 58.8 148.73C58.8 148.36 59.1 148.06 59.47 148.06C59.84 148.06 60.14 148.36 60.14 148.73C60.14 149.1 59.84 149.41 59.47 149.41Z" id="b9SKwIrrm"></path><path d="M86.87 197.41L86.87 194.17L90.1 194.17L90.1 197.41L86.87 197.41ZM87.52 196.76L89.46 196.76L89.46 194.82L87.52 194.82L87.52 196.76Z" id="c11hxP5PtJ"></path><path d="M106.99 195.47C106.99 195.47 106.99 195.47 106.99 195.47C106.99 195.53 106.99 196.05 106.99 196.11C106.99 196.11 106.99 196.11 106.99 196.11C105.27 196.11 91.57 196.11 89.86 196.11C89.86 196.11 89.86 196.11 89.86 196.11C89.86 196.05 89.86 195.53 89.86 195.47C89.86 195.47 89.86 195.47 89.86 195.47C93.28 195.47 105.27 195.47 106.99 195.47Z" id="a2KxdSMWp"></path><path d="M106.66 196.46C106.29 196.46 105.99 196.16 105.99 195.79C105.99 195.42 106.29 195.12 106.66 195.12C107.04 195.12 107.34 195.42 107.34 195.79C107.34 196.16 107.04 196.46 106.66 196.46Z" id="b4QzBBkJ1"></path><path d="M87.27 195.47C87.27 195.47 87.27 195.47 87.27 195.47C87.27 195.53 87.27 196.05 87.27 196.11C87.27 196.11 87.27 196.11 87.27 196.11C85.59 196.11 72.14 196.11 70.46 196.11C70.46 196.11 70.46 196.11 70.46 196.11C70.46 196.05 70.46 195.53 70.46 195.47C70.46 195.47 70.46 195.47 70.46 195.47C73.82 195.47 85.59 195.47 87.27 195.47Z" id="g1eGS0zAbv"></path><path d="M70.46 196.46C70.09 196.46 69.79 196.16 69.79 195.79C69.79 195.42 70.09 195.12 70.46 195.12C70.83 195.12 71.13 195.42 71.13 195.79C71.13 196.16 70.83 196.46 70.46 196.46Z" id="a11noXBa4r"></path><path d="M469.24 148.09C466.03 147.35 463.28 145.3 461.66 142.44C461.66 142.44 461.66 142.44 461.66 142.44C461.27 142.73 460.8 142.88 460.32 142.88C459.92 142.88 456.67 142.88 456.27 142.88C458.47 148.37 463.4 152.29 469.24 153.19C469.24 152.17 469.24 148.6 469.24 148.09Z" id="fcKb20XDl"></path><path d="M469.24 142.89C469.24 141.38 468.02 140.16 466.51 140.16C466.51 140.16 466.51 140.16 466.51 140.16C466.25 140.16 464.93 140.16 462.57 140.16C462.57 140.44 462.57 140.6 462.57 140.63C462.57 141.25 462.32 141.83 461.88 142.26C463.45 145.05 466.12 147.06 469.24 147.8C469.24 146.81 469.24 143.38 469.24 142.89Z" id="b235X2eARu"></path><path d="M447.65 142.88C446.41 142.88 445.4 141.87 445.4 140.63C445.4 140.6 445.4 140.44 445.4 140.16C443.18 140.16 441.95 140.16 441.71 140.16C440.2 140.16 438.97 141.38 438.97 142.89C438.97 142.89 438.97 142.89 438.97 142.89C438.97 148.97 438.97 197.61 438.97 203.69C438.97 205.2 440.19 206.42 441.7 206.42C441.7 206.42 441.7 206.42 441.71 206.42C444.17 206.42 463.92 206.42 466.39 206.42C466.5 206.42 466.61 206.41 466.73 206.4C468.09 206.23 469.12 205.07 469.12 203.69C469.12 199.21 469.12 163.41 469.12 158.93C460.14 157.89 452.66 151.49 450.18 142.88C449.68 142.88 447.9 142.88 447.65 142.88Z" id="k1uCiclJSs"></path><path d="M450.6 142.88C453.07 151.33 460.42 157.61 469.24 158.65C469.24 158.13 469.24 154 469.24 153.49C463.24 152.57 458.18 148.53 455.96 142.88C455.96 142.88 451.14 142.88 450.6 142.88Z" id="b5W7V1nIV4"></path><path d="M448.03 205.48C448.1 205.41 449.71 203.78 451.08 199.9C452.34 196.34 453.6 190.14 452.51 180.79C450.43 163.07 461.06 151.78 461.17 151.67C461.14 151.64 460.89 151.4 460.86 151.37C460.83 151.4 458.1 154.27 455.67 159.31C452.45 166 451.2 173.47 452.07 180.84C454.14 198.52 447.79 205.11 447.72 205.17C447.78 205.23 447.97 205.42 448.03 205.48Z" id="e1Lj2oM1FD"></path><path d="M464.44 151.37C462.87 151.37 461.6 150.1 461.6 148.54C461.6 146.97 462.87 145.7 464.44 145.7C466 145.7 467.27 146.97 467.27 148.54C467.27 150.1 466 151.37 464.44 151.37Z" id="d1yhaV9c1v"></path><path d="M453.27 159.42C451.7 159.42 450.43 158.15 450.43 156.59C450.43 155.02 451.7 153.75 453.27 153.75C454.83 153.75 456.1 155.02 456.1 156.59C456.1 158.15 454.83 159.42 453.27 159.42Z" id="h3kWGLWkY5"></path><path d="M446.34 205.17C446.34 205.17 450.75 199.07 443.73 191.97C443.73 191.97 446.34 205.17 446.34 205.17Z" id="g3tNHMycbt"></path><path d="M449.76 205.88C449.76 205.88 452.77 198.98 462.46 201.41C462.46 201.41 449.76 205.88 449.76 205.88Z" id="d3ReKKvYUF"></path><path d="M466.12 186.3C466.12 186.3 466.12 186.3 466.12 186.3C466.12 186.77 466.12 190.52 466.12 190.99C466.12 190.99 466.12 190.99 466.12 190.99C463.74 190.99 444.68 190.99 442.29 190.99C442.29 190.99 442.29 190.99 442.29 190.99C442.29 190.52 442.29 186.77 442.29 186.3C442.29 186.3 442.29 186.3 442.29 186.3C447.06 186.3 463.74 186.3 466.12 186.3Z" id="b27XQGdvm"></path><path d="M443.61 169.95C443.61 175.13 447.28 179.59 452.36 180.58C452.38 180.59 452.4 180.59 452.42 180.59C452.89 180.68 453.28 180.71 453.37 180.73C453.39 180.73 453.41 180.73 453.43 180.73C453.9 180.78 454.29 180.78 454.38 180.78C454.4 180.78 454.42 180.78 454.44 180.78C454.92 180.78 455.3 180.74 455.39 180.74C455.41 180.74 455.43 180.74 455.45 180.73C455.93 180.69 456.3 180.62 456.4 180.6C456.42 180.6 456.44 180.6 456.46 180.59C462.34 179.48 466.2 173.81 465.08 167.93C464.11 162.82 459.64 159.11 454.44 159.11C448.46 159.11 443.61 163.97 443.61 169.95Z" id="c431GlIGjl"></path><path d="M456.64 180.1C456.62 180.1 456.6 180.1 456.59 180.11C456.14 180.19 455.77 180.22 455.68 180.23C455.66 180.23 455.64 180.24 455.62 180.24C455.17 180.28 454.8 180.27 454.71 180.28C454.69 180.28 454.67 180.28 454.65 180.28C454.2 180.27 453.84 180.24 453.75 180.23C453.73 180.23 453.71 180.23 453.69 180.23C453.23 180.18 452.87 180.11 452.78 180.1C452.76 180.09 452.74 180.09 452.72 180.09C447.11 178.99 443.44 173.54 444.54 167.93C445.63 162.31 451.08 158.64 456.7 159.74C461.56 160.69 465.08 164.95 465.08 169.91C465.08 174.89 461.53 179.17 456.64 180.1Z" id="dz2Gltkej"></path><path d="M401.6 95.58L402.74 96.2L403.72 97.02L404.54 98L405.15 99.14L405.54 100.39L405.68 101.73L405.54 103.08L405.15 104.33L404.54 105.46L403.72 106.45L402.73 107.27L401.6 107.88L400.35 108.27L399.01 108.41L397.66 108.27L396.41 107.88L395.27 107.27L394.29 106.45L393.47 105.47L392.86 104.33L392.47 103.08L392.33 101.73L392.47 100.39L392.86 99.14L393.47 98L394.29 97.02L395.27 96.2L396.41 95.58L397.66 95.2L399.01 95.06L400.35 95.2L401.6 95.58ZM396.39 97.25L395.33 98.06L394.52 99.11L394 100.35L393.81 101.73L394 103.11L394.52 104.35L395.33 105.4L396.39 106.22L397.63 106.74L399.01 106.93L400.39 106.74L401.63 106.22L402.68 105.4L403.49 104.35L404.01 103.11L404.2 101.73L404.01 100.36L403.49 99.12L402.67 98.07L401.62 97.25L400.38 96.73L399.01 96.54L397.63 96.73L396.39 97.25Z" id="a40M04Jt5m"></path><path d="M401.6 162.52L402.74 163.14L403.72 163.95L404.54 164.94L405.15 166.07L405.54 167.33L405.68 168.67L405.54 170.01L405.15 171.27L404.54 172.4L403.72 173.39L402.74 174.2L401.6 174.82L400.35 175.21L399.01 175.34L397.66 175.21L396.41 174.82L395.27 174.2L394.29 173.39L393.47 172.4L392.86 171.27L392.47 170.02L392.33 168.67L392.47 167.33L392.86 166.07L393.47 164.94L394.29 163.95L395.27 163.14L396.41 162.52L397.66 162.13L399.01 162L400.35 162.13L401.6 162.52ZM396.39 164.19L395.33 165L394.52 166.05L394 167.29L393.81 168.67L394 170.05L394.52 171.29L395.33 172.34L396.39 173.15L397.63 173.68L399.01 173.86L400.39 173.68L401.63 173.15L402.68 172.34L403.49 171.29L404.01 170.05L404.2 168.67L404.01 167.29L403.49 166.05L402.67 165L401.62 164.19L400.38 163.67L399.01 163.48L397.63 163.66L396.39 164.19Z" id="b1w3JmAPNr"></path><path d="M425.33 162.52L426.47 163.14L427.45 163.95L428.27 164.94L428.88 166.07L429.27 167.33L429.41 168.67L429.27 170.01L428.88 171.27L428.27 172.4L427.45 173.39L426.46 174.2L425.33 174.82L424.08 175.21L422.73 175.34L421.39 175.21L420.14 174.82L419 174.2L418.02 173.39L417.2 172.4L416.59 171.27L416.2 170.02L416.06 168.67L416.2 167.33L416.59 166.07L417.2 164.94L418.02 163.95L419 163.14L420.14 162.52L421.39 162.13L422.73 162L424.08 162.13L425.33 162.52ZM420.11 164.19L419.06 165L418.25 166.05L417.73 167.29L417.54 168.67L417.73 170.05L418.25 171.29L419.06 172.34L420.11 173.15L421.35 173.68L422.73 173.86L424.11 173.68L425.35 173.15L426.41 172.34L427.22 171.29L427.74 170.05L427.93 168.67L427.74 167.29L427.22 166.05L426.4 165L425.35 164.19L424.11 163.67L422.73 163.48L421.35 163.66L420.11 164.19Z" id="dKPMA1csD"></path><path d="M457.83 182.02C455.99 182.02 454.5 180.52 454.5 178.68C454.5 176.84 455.99 175.34 457.83 175.34C459.68 175.34 461.17 176.84 461.17 178.68C461.17 180.52 459.68 182.02 457.83 182.02Z" id="bhSJXBsjY"></path><path d="M377.87 162.52L379.01 163.14L380 163.95L380.81 164.94L381.43 166.07L381.81 167.33L381.95 168.67L381.81 170.01L381.42 171.27L380.81 172.4L379.99 173.39L379.01 174.2L377.87 174.82L376.62 175.21L375.28 175.34L373.93 175.21L372.68 174.82L371.54 174.2L370.56 173.39L369.74 172.4L369.13 171.27L368.74 170.02L368.6 168.67L368.74 167.33L369.13 166.07L369.74 164.94L370.56 163.95L371.54 163.14L372.68 162.52L373.93 162.13L375.28 162L376.62 162.13L377.87 162.52ZM372.66 164.19L371.61 165L370.79 166.05L370.27 167.29L370.09 168.67L370.27 170.05L370.79 171.29L371.61 172.34L372.66 173.15L373.9 173.68L375.28 173.86L376.66 173.68L377.9 173.15L378.95 172.34L379.76 171.29L380.28 170.05L380.47 168.67L380.28 167.29L379.76 166.05L378.94 165L377.89 164.19L376.66 163.67L375.28 163.48L373.9 163.66L372.66 164.19Z" id="am2ONPg"></path><path d="M346.15 103.07C345.55 103.07 345.07 102.59 345.07 102C345.07 101.41 345.55 100.93 346.15 100.93C347.97 100.93 357.12 100.93 373.57 100.93C369.85 97.2 367.78 95.14 367.36 94.72C366.94 94.3 366.94 93.62 367.36 93.21C367.78 92.79 368.46 92.79 368.88 93.21C369.68 94.01 376.11 100.44 376.92 101.24C377.34 101.66 377.34 102.34 376.92 102.76C376.72 102.96 376.44 103.07 376.16 103.07C376.16 103.07 349.15 103.07 346.15 103.07Z" id="g7DYPJTP9w"></path><path d="M367.58 109.51C367.58 109.22 367.7 108.95 367.9 108.75C368.65 108 374.65 101.99 375.4 101.24C375.82 100.83 376.5 100.83 376.92 101.24C377.34 101.66 377.34 102.34 376.92 102.76C376.17 103.51 370.16 109.51 369.41 110.26C369.21 110.46 368.94 110.58 368.66 110.58C368.06 110.58 367.58 110.1 367.58 109.51Z" id="dvl85prIA"></path><path d="M268.35 120.01C267.33 114.09 267.33 108.03 268.35 102.11C269.85 102.11 281.86 102.11 283.37 102.11C281.67 107.95 281.67 114.16 283.37 120.01C280.36 120.01 269.85 120.01 268.35 120.01Z" id="cMJmlD8O8"></path><path d="M246.56 138.6C245.54 132.68 245.54 126.62 246.56 120.7C248.06 120.7 260.08 120.7 261.58 120.7C259.89 126.55 259.89 132.75 261.58 138.6C258.57 138.6 248.06 138.6 246.56 138.6Z" id="bNrO77hIC"></path><path d="M221.59 137.91C220.57 131.99 220.57 125.93 221.59 120.01C223.09 120.01 235.1 120.01 236.61 120.01C234.91 125.86 234.91 132.07 236.61 137.91C233.6 137.91 223.09 137.91 221.59 137.91Z" id="brko4A3o4"></path><path d="M386.11 227.87C386.46 227.86 386.74 227.57 386.73 227.22C386.71 226.88 386.45 226.61 386.11 226.6C385.76 226.61 385.49 226.91 385.5 227.26C385.51 227.59 385.78 227.86 386.11 227.87" id="d8ePZl40YD"></path><path d="M386.11 234.68C386.46 234.67 386.74 234.37 386.73 234.02C386.71 233.69 386.45 233.42 386.11 233.41C385.76 233.42 385.49 233.72 385.5 234.07C385.51 234.4 385.78 234.67 386.11 234.68" id="c2QRKSwFXv"></path><path d="M386.11 241.49C386.46 241.48 386.74 241.18 386.73 240.83C386.71 240.5 386.45 240.23 386.11 240.22C385.76 240.23 385.49 240.52 385.5 240.88C385.51 241.21 385.78 241.48 386.11 241.49" id="b46nXltoa"></path><path d="M392.09 227.86C391.75 227.86 391.47 227.58 391.47 227.24C391.47 226.9 391.75 226.62 392.09 226.62C394.07 226.62 409.91 226.62 411.89 226.62C412.23 226.62 412.51 226.9 412.51 227.24C412.51 227.58 412.23 227.86 411.89 227.86C411.89 227.86 394.07 227.86 392.09 227.86Z" id="bly2G42H"></path><path d="M392.09 234.66C391.75 234.67 391.47 234.39 391.47 234.05C391.47 233.71 391.74 233.43 392.08 233.43C392.08 233.43 392.09 233.43 392.09 233.43C394.07 233.43 409.91 233.43 411.89 233.43C412.23 233.43 412.51 233.7 412.51 234.04C412.51 234.39 412.24 234.66 411.9 234.66C411.89 234.66 411.89 234.66 411.89 234.66C411.89 234.66 394.07 234.66 392.09 234.66Z" id="a4aKLVi9U1"></path><path d="M392.09 241.47C391.75 241.47 391.47 241.2 391.47 240.85C391.47 240.51 391.75 240.23 392.09 240.23C394.07 240.23 409.91 240.23 411.89 240.23C412.23 240.23 412.51 240.51 412.51 240.85C412.51 241.19 412.24 241.47 411.9 241.47C411.89 241.47 411.89 241.47 411.89 241.47C411.89 241.47 394.07 241.47 392.09 241.47Z" id="a1O6mvYhlM"></path><path d="M386.11 248.24C386.46 248.22 386.74 247.93 386.73 247.58C386.71 247.24 386.45 246.98 386.11 246.96C385.76 246.98 385.49 247.27 385.5 247.62C385.51 247.96 385.78 248.22 386.11 248.24" id="d28n9bcU56"></path><path d="M386.11 255.04C386.46 255.03 386.74 254.74 386.73 254.39C386.71 254.05 386.45 253.78 386.11 253.77C385.76 253.78 385.49 254.08 385.5 254.43C385.51 254.76 385.78 255.03 386.11 255.04" id="bBqRtHd8x"></path><path d="M386.11 261.85C386.46 261.84 386.74 261.55 386.73 261.19C386.71 260.86 386.45 260.59 386.11 260.58C385.76 260.59 385.49 260.89 385.5 261.24C385.51 261.57 385.78 261.84 386.11 261.85" id="a5Vp5vgBRt"></path><path d="M392.09 248.22C391.75 248.22 391.47 247.94 391.47 247.6C391.47 247.26 391.75 246.98 392.09 246.98C394.07 246.98 409.91 246.98 411.89 246.98C412.23 246.98 412.51 247.26 412.51 247.6C412.51 247.94 412.23 248.22 411.89 248.22C411.89 248.22 394.07 248.22 392.09 248.22Z" id="ghf8WGDvS"></path><path d="M392.09 255.03C391.75 255.03 391.47 254.75 391.47 254.41C391.47 254.07 391.74 253.79 392.08 253.79C392.08 253.79 392.09 253.79 392.09 253.79C394.07 253.79 409.91 253.79 411.89 253.79C412.23 253.79 412.51 254.06 412.51 254.41C412.51 254.75 412.24 255.03 411.9 255.03C411.89 255.03 411.89 255.03 411.89 255.03C411.89 255.03 394.07 255.03 392.09 255.03Z" id="e1cawsUcb2"></path><path d="M392.09 261.84C391.75 261.84 391.47 261.56 391.47 261.22C391.47 260.87 391.75 260.6 392.09 260.6C394.07 260.6 409.91 260.6 411.89 260.6C412.23 260.6 412.51 260.87 412.51 261.21C412.51 261.56 412.24 261.83 411.9 261.84C411.89 261.84 411.89 261.84 411.89 261.84C411.89 261.84 394.07 261.84 392.09 261.84Z" id="g34ey2CdSg"></path><path d="M301.39 192.47C302.74 184.65 302.74 176.67 301.39 168.85C299.41 168.85 283.56 168.85 281.58 168.85C283.81 176.56 283.81 184.75 281.58 192.47C285.54 192.47 299.41 192.47 301.39 192.47Z" id="eav2Y6AQ0"></path><path d="M286.21 175.73C286 175.73 285.83 175.46 285.83 175.13C285.83 174.79 286 174.52 286.21 174.52C287.42 174.52 297.06 174.52 298.26 174.52C298.47 174.52 298.64 174.79 298.64 175.13C298.64 175.46 298.47 175.73 298.26 175.73C295.85 175.73 287.42 175.73 286.21 175.73Z" id="a5yvGgUuE2"></path><path d="M286.21 181.35C286 181.35 285.83 181.08 285.83 180.75C285.83 180.41 286 180.14 286.21 180.14C287.42 180.14 297.06 180.14 298.26 180.14C298.47 180.14 298.64 180.41 298.64 180.75C298.64 181.08 298.47 181.35 298.26 181.35C295.85 181.35 287.42 181.35 286.21 181.35Z" id="cqnuo0Qij"></path><path d="M286.21 186.97C286 186.97 285.83 186.7 285.83 186.37C285.83 186.03 286 185.76 286.21 185.76C287.42 185.76 297.06 185.76 298.26 185.76C298.47 185.76 298.64 186.03 298.64 186.37C298.64 186.7 298.47 186.97 298.26 186.97C295.85 186.97 287.42 186.97 286.21 186.97Z" id="aqBoSEmD1"></path><path d="M301.39 165.66C302.74 157.85 302.74 149.86 301.39 142.04C299.41 142.04 283.56 142.04 281.58 142.04C283.81 149.76 283.81 157.95 281.58 165.66C285.54 165.66 299.41 165.66 301.39 165.66Z" id="b8J1knRfH9"></path><path d="M286.21 148.93C286 148.93 285.83 148.65 285.83 148.32C285.83 147.98 286 147.71 286.21 147.71C287.42 147.71 297.06 147.71 298.26 147.71C298.47 147.71 298.64 147.98 298.64 148.32C298.64 148.65 298.47 148.93 298.26 148.93C295.85 148.93 287.42 148.93 286.21 148.93Z" id="ewCfGJ169"></path><path d="M286.21 154.55C286 154.55 285.83 154.27 285.83 153.94C285.83 153.6 286 153.33 286.21 153.33C287.42 153.33 297.06 153.33 298.26 153.33C298.47 153.33 298.64 153.6 298.64 153.94C298.64 154.27 298.47 154.55 298.26 154.55C295.85 154.55 287.42 154.55 286.21 154.55Z" id="eAVwyq0i"></path><path d="M286.21 160.17C286 160.17 285.83 159.89 285.83 159.56C285.83 159.22 286 158.95 286.21 158.95C287.42 158.95 297.06 158.95 298.26 158.95C298.47 158.95 298.64 159.22 298.64 159.56C298.64 159.89 298.47 160.17 298.26 160.17C295.85 160.17 287.42 160.17 286.21 160.17Z" id="a1RSAglSZZ"></path></defs><g><g><g><use xlink:href="#aOqxxnLv8" opacity="1" fill="#ffffff" fill-opacity="1"></use><g><use xlink:href="#aOqxxnLv8" opacity="1" fill-opacity="0" stroke="#000000" stroke-width="1" stroke-opacity="0"></use></g></g><g><use xlink:href="#f3qLQvVoSf" opacity="1" fill="#323232" fill-opacity="1"></use></g><g><use xlink:href="#fxSQ8TJTj" opacity="1" fill="#323232" fill-opacity="1"></use></g><g><use xlink:href="#aFheIQy2" opacity="1" fill="#323232" fill-opacity="1"></use></g><g><use xlink:href="#f2DBNONTAX" opacity="1" fill="#323232" fill-opacity="1"></use><g><use xlink:href="#f2DBNONTAX" opacity="1" fill-opacity="0" stroke="#000000" stroke-width="1" stroke-opacity="0"></use></g></g><g><use xlink:href="#bOEGRHWHv" opacity="1" fill="#3c6389" fill-opacity="1"></use><g><use xlink:href="#bOEGRHWHv" opacity="1" fill-opacity="0" stroke="#000000" stroke-width="1" stroke-opacity="0"></use></g></g><g><use xlink:href="#g1Y34Qqltc" opacity="1" fill="#ffffff" fill-opacity="1"></use><g><use xlink:href="#g1Y34Qqltc" opacity="1" fill-opacity="0" stroke="#000000" stroke-width="1" stroke-opacity="0"></use></g></g><g><use xlink:href="#a6fMUprwLH" opacity="1" fill="#ffffff" fill-opacity="1"></use><g><use xlink:href="#a6fMUprwLH" opacity="1" fill-opacity="0" stroke="#000000" stroke-width="1" stroke-opacity="0"></use></g></g><g><use xlink:href="#b1cLWj3JuB" opacity="1" fill="#ffffff" fill-opacity="1"></use><g><use xlink:href="#b1cLWj3JuB" opacity="1" fill-opacity="0" stroke="#000000" stroke-width="1" stroke-opacity="0"></use></g></g><g><use xlink:href="#euoeGYQXT" opacity="1" fill="#ffffff" fill-opacity="1"></use><g><use xlink:href="#euoeGYQXT" opacity="1" fill-opacity="0" stroke="#000000" stroke-width="1" stroke-opacity="0"></use></g></g><g><use xlink:href="#j2hGSrrvoc" opacity="1" fill="#ffffff" fill-opacity="1"></use><g><use xlink:href="#j2hGSrrvoc" opacity="1" fill-opacity="0" stroke="#000000" stroke-width="1" stroke-opacity="0"></use></g></g><g><use xlink:href="#h24OmomweH" opacity="1" fill="#ffffff" fill-opacity="1"></use><g><use xlink:href="#h24OmomweH" opacity="1" fill-opacity="0" stroke="#000000" stroke-width="1" stroke-opacity="0"></use></g></g><g><use xlink:href="#brfyrNXVh" opacity="1" fill="#ffffff" fill-opacity="1"></use><g><use xlink:href="#brfyrNXVh" opacity="1" fill-opacity="0" stroke="#000000" stroke-width="1" stroke-opacity="0"></use></g></g><g><use xlink:href="#a1O2dSa7XM" opacity="1" fill="#ffffff" fill-opacity="1"></use><g><use xlink:href="#a1O2dSa7XM" opacity="1" fill-opacity="0" stroke="#000000" stroke-width="1" stroke-opacity="0"></use></g></g><g><use xlink:href="#d3DY4jw23" opacity="1" fill="#ffffff" fill-opacity="1"></use><g><use xlink:href="#d3DY4jw23" opacity="1" fill-opacity="0" stroke="#000000" stroke-width="1" stroke-opacity="0"></use></g></g><g><use xlink:href="#f8IsTvXQ82" opacity="1" fill="#ffffff" fill-opacity="1"></use><g><use xlink:href="#f8IsTvXQ82" opacity="1" fill-opacity="0" stroke="#000000" stroke-width="1" stroke-opacity="0"></use></g></g><g><use xlink:href="#a67j9k0mxJ" opacity="1" fill="#ffffff" fill-opacity="1"></use><g><use xlink:href="#a67j9k0mxJ" opacity="1" fill-opacity="0" stroke="#000000" stroke-width="1" stroke-opacity="0"></use></g></g><g><use xlink:href="#abeKBJusd" opacity="1" fill="#ffffff" fill-opacity="1"></use><g><use xlink:href="#abeKBJusd" opacity="1" fill-opacity="0" stroke="#000000" stroke-width="1" stroke-opacity="0"></use></g></g><g><use xlink:href="#f5G8coa22c" opacity="1" fill="#ffffff" fill-opacity="1"></use><g><use xlink:href="#f5G8coa22c" opacity="1" fill-opacity="0" stroke="#000000" stroke-width="1" stroke-opacity="0"></use></g></g><g><use xlink:href="#b9gO07q1d" opacity="1" fill="#ffffff" fill-opacity="1"></use><g><use xlink:href="#b9gO07q1d" opacity="1" fill-opacity="0" stroke="#000000" stroke-width="1" stroke-opacity="0"></use></g></g><g><use xlink:href="#a4x143EeEj" opacity="1" fill="#ffffff" fill-opacity="1"></use><g><use xlink:href="#a4x143EeEj" opacity="1" fill-opacity="0" stroke="#000000" stroke-width="1" stroke-opacity="0"></use></g></g><g><use xlink:href="#a8NN0sNj9n" opacity="1" fill="#ffffff" fill-opacity="1"></use><g><use xlink:href="#a8NN0sNj9n" opacity="1" fill-opacity="0" stroke="#000000" stroke-width="1" stroke-opacity="0"></use></g></g><g><use xlink:href="#bcuwkcLA" opacity="1" fill="#ffffff" fill-opacity="1"></use><g><use xlink:href="#bcuwkcLA" opacity="1" fill-opacity="0" stroke="#000000" stroke-width="1" stroke-opacity="0"></use></g></g><g><use xlink:href="#j57GAPxRO" opacity="1" fill="#ffffff" fill-opacity="1"></use><g><use xlink:href="#j57GAPxRO" opacity="1" fill-opacity="0" stroke="#000000" stroke-width="1" stroke-opacity="0"></use></g></g><g><use xlink:href="#brDaQMnEH" opacity="1" fill="#ffffff" fill-opacity="1"></use><g><use xlink:href="#brDaQMnEH" opacity="1" fill-opacity="0" stroke="#000000" stroke-width="1" stroke-opacity="0"></use></g></g><g><use xlink:href="#igPFfFdtZ" opacity="1" fill="#ffffff" fill-opacity="1"></use><g><use xlink:href="#igPFfFdtZ" opacity="1" fill-opacity="0" stroke="#000000" stroke-width="1" stroke-opacity="0"></use></g></g><g><use xlink:href="#cbGtJ2rbM" opacity="1" fill="#ffffff" fill-opacity="1"></use><g><use xlink:href="#cbGtJ2rbM" opacity="1" fill-opacity="0" stroke="#000000" stroke-width="1" stroke-opacity="0"></use></g></g><g><use xlink:href="#e2JXt1hyEn" opacity="1" fill="#ffffff" fill-opacity="1"></use><g><use xlink:href="#e2JXt1hyEn" opacity="1" fill-opacity="0" stroke="#000000" stroke-width="1" stroke-opacity="0"></use></g></g><g><use xlink:href="#c5cmklxPK" opacity="1" fill="#ffffff" fill-opacity="1"></use><g><use xlink:href="#c5cmklxPK" opacity="1" fill-opacity="0" stroke="#000000" stroke-width="1" stroke-opacity="0"></use></g></g><g><use xlink:href="#dPokpCwsS" opacity="1" fill="#ffffff" fill-opacity="1"></use><g><use xlink:href="#dPokpCwsS" opacity="1" fill-opacity="0" stroke="#000000" stroke-width="1" stroke-opacity="0"></use></g></g><g><use xlink:href="#c1Px4sTtiD" opacity="1" fill="#ffffff" fill-opacity="1"></use><g><use xlink:href="#c1Px4sTtiD" opacity="1" fill-opacity="0" stroke="#000000" stroke-width="1" stroke-opacity="0"></use></g></g><g><use xlink:href="#f3p5tigxUP" opacity="1" fill="#ffffff" fill-opacity="1"></use><g><use xlink:href="#f3p5tigxUP" opacity="1" fill-opacity="0" stroke="#000000" stroke-width="1" stroke-opacity="0"></use></g></g><g><use xlink:href="#ckM2AThml" opacity="1" fill="#ffffff" fill-opacity="1"></use><g><use xlink:href="#ckM2AThml" opacity="1" fill-opacity="0" stroke="#000000" stroke-width="1" stroke-opacity="0"></use></g></g><g><use xlink:href="#g25yXNmWrL" opacity="1" fill="#ffffff" fill-opacity="1"></use><g><use xlink:href="#g25yXNmWrL" opacity="1" fill-opacity="0" stroke="#000000" stroke-width="1" stroke-opacity="0"></use></g></g><g><use xlink:href="#b3dxtQXki1" opacity="1" fill="#ffffff" fill-opacity="1"></use><g><use xlink:href="#b3dxtQXki1" opacity="1" fill-opacity="0" stroke="#000000" stroke-width="1" stroke-opacity="0"></use></g></g><g><use xlink:href="#bSZdBX6mq" opacity="1" fill="#ffffff" fill-opacity="1"></use><g><use xlink:href="#bSZdBX6mq" opacity="1" fill-opacity="0" stroke="#000000" stroke-width="1" stroke-opacity="0"></use></g></g><g><use xlink:href="#a3HUuyGrS9" opacity="1" fill="#ffffff" fill-opacity="1"></use><g><use xlink:href="#a3HUuyGrS9" opacity="1" fill-opacity="0" stroke="#000000" stroke-width="1" stroke-opacity="0"></use></g></g><g><use xlink:href="#b1iTKnAm1s" opacity="1" fill="#ffffff" fill-opacity="1"></use><g><use xlink:href="#b1iTKnAm1s" opacity="1" fill-opacity="0" stroke="#000000" stroke-width="1" stroke-opacity="0"></use></g></g><g><use xlink:href="#bq04dXE3C" opacity="1" fill="#ffffff" fill-opacity="1"></use><g><use xlink:href="#bq04dXE3C" opacity="1" fill-opacity="0" stroke="#000000" stroke-width="1" stroke-opacity="0"></use></g></g><g><use xlink:href="#dyVKt4yMe" opacity="1" fill="#ffffff" fill-opacity="1"></use><g><use xlink:href="#dyVKt4yMe" opacity="1" fill-opacity="0" stroke="#000000" stroke-width="1" stroke-opacity="0"></use></g></g><g><use xlink:href="#g18tivd2JO" opacity="1" fill="#ffffff" fill-opacity="1"></use><g><use xlink:href="#g18tivd2JO" opacity="1" fill-opacity="0" stroke="#000000" stroke-width="1" stroke-opacity="0"></use></g></g><g><use xlink:href="#b16rmslgPk" opacity="1" fill="#db2222" fill-opacity="1"></use><g><use xlink:href="#b16rmslgPk" opacity="1" fill-opacity="0" stroke="#000000" stroke-width="1" stroke-opacity="0"></use></g></g><g><use xlink:href="#h1IN3eWXjG" opacity="1" fill="#323232" fill-opacity="1"></use><g><use xlink:href="#h1IN3eWXjG" opacity="1" fill-opacity="0" stroke="#000000" stroke-width="1" stroke-opacity="0"></use></g></g><g><use xlink:href="#a52akzdw0e" opacity="1" fill="#ffffff" fill-opacity="1"></use><g><use xlink:href="#a52akzdw0e" opacity="1" fill-opacity="0" stroke="#000000" stroke-width="1" stroke-opacity="0"></use></g></g><g><use xlink:href="#dULQfciBs" opacity="1" fill="#ffffff" fill-opacity="1"></use><g><use xlink:href="#dULQfciBs" opacity="1" fill-opacity="0" stroke="#000000" stroke-width="1" stroke-opacity="0"></use></g></g><g><use xlink:href="#c2cFiW7Zxr" opacity="1" fill="#ffffff" fill-opacity="1"></use><g><use xlink:href="#c2cFiW7Zxr" opacity="1" fill-opacity="0" stroke="#000000" stroke-width="1" stroke-opacity="0"></use></g></g><g><use xlink:href="#e1TUibFgF6" opacity="1" fill="#ffffff" fill-opacity="1"></use><g><use xlink:href="#e1TUibFgF6" opacity="1" fill-opacity="0" stroke="#000000" stroke-width="1" stroke-opacity="0"></use></g></g><g><use xlink:href="#byxjwP44n" opacity="1" fill="#ffffff" fill-opacity="1"></use><g><use xlink:href="#byxjwP44n" opacity="1" fill-opacity="0" stroke="#000000" stroke-width="1" stroke-opacity="0"></use></g></g><g><use xlink:href="#imSZeTZSG" opacity="1" fill="#323232" fill-opacity="1"></use><g><use xlink:href="#imSZeTZSG" opacity="1" fill-opacity="0" stroke="#000000" stroke-width="1" stroke-opacity="0"></use></g></g><g><use xlink:href="#aRtcRPZQD" opacity="1" fill="#ffffff" fill-opacity="1"></use><g><use xlink:href="#aRtcRPZQD" opacity="1" fill-opacity="0" stroke="#000000" stroke-width="1" stroke-opacity="0"></use></g></g><g><use xlink:href="#bILFmwopL" opacity="1" fill="#ffffff" fill-opacity="1"></use><g><use xlink:href="#bILFmwopL" opacity="1" fill-opacity="0" stroke="#000000" stroke-width="1" stroke-opacity="0"></use></g></g><g><use xlink:href="#aVF7Rzfag" opacity="1" fill="#ffffff" fill-opacity="1"></use><g><use xlink:href="#aVF7Rzfag" opacity="1" fill-opacity="0" stroke="#000000" stroke-width="1" stroke-opacity="0"></use></g></g><g><use xlink:href="#cTU1z38h" opacity="1" fill="#e0ac69" fill-opacity="1"></use><g><use xlink:href="#cTU1z38h" opacity="1" fill-opacity="0" stroke="#000000" stroke-width="1" stroke-opacity="0"></use></g></g><g><use xlink:href="#a18BoHctJd" opacity="1" fill="#ffffff" fill-opacity="1"></use><g><use xlink:href="#a18BoHctJd" opacity="1" fill-opacity="0" stroke="#000000" stroke-width="1" stroke-opacity="0"></use></g></g><g><use xlink:href="#c2v9OWWCa6" opacity="1" fill="#e0ac69" fill-opacity="1"></use><g><use xlink:href="#c2v9OWWCa6" opacity="1" fill-opacity="0" stroke="#000000" stroke-width="1" stroke-opacity="0"></use></g></g><g><use xlink:href="#aFxJlvjQ3" opacity="1" fill="#e0ac69" fill-opacity="1"></use><g><use xlink:href="#aFxJlvjQ3" opacity="1" fill-opacity="0" stroke="#000000" stroke-width="1" stroke-opacity="0"></use></g></g><g><use xlink:href="#aqit4DTFK" opacity="1" fill="#1f3f5d" fill-opacity="1"></use><g><use xlink:href="#aqit4DTFK" opacity="1" fill-opacity="0" stroke="#000000" stroke-width="1" stroke-opacity="0"></use></g></g><g><use xlink:href="#b2ZZZLlJV" opacity="1" fill="#3c6389" fill-opacity="1"></use><g><use xlink:href="#b2ZZZLlJV" opacity="1" fill-opacity="0" stroke="#000000" stroke-width="1" stroke-opacity="0"></use></g></g><g><use xlink:href="#i1oKRXG1dv" opacity="1" fill="#3c6389" fill-opacity="1"></use><g><use xlink:href="#i1oKRXG1dv" opacity="1" fill-opacity="0" stroke="#000000" stroke-width="1" stroke-opacity="0"></use></g></g><g><use xlink:href="#f1020HXZ6F" opacity="1" fill="#e0ac69" fill-opacity="1"></use><g><use xlink:href="#f1020HXZ6F" opacity="1" fill-opacity="0" stroke="#000000" stroke-width="1" stroke-opacity="0"></use></g></g><g><use xlink:href="#bioBbECB5" opacity="1" fill="#e0ac69" fill-opacity="1"></use><g><use xlink:href="#bioBbECB5" opacity="1" fill-opacity="0" stroke="#000000" stroke-width="1" stroke-opacity="0"></use></g></g><g><use xlink:href="#e1si9EDZuL" opacity="1" fill="#f5f5f5" fill-opacity="1"></use><g><use xlink:href="#e1si9EDZuL" opacity="1" fill-opacity="0" stroke="#000000" stroke-width="1" stroke-opacity="0"></use></g></g><g><use xlink:href="#aFUIXdjvC" opacity="1" fill="#3c6389" fill-opacity="1"></use><g><use xlink:href="#aFUIXdjvC" opacity="1" fill-opacity="0" stroke="#000000" stroke-width="1" stroke-opacity="0"></use></g></g><g><use xlink:href="#a67S1ttjn" opacity="1" fill="#3c6389" fill-opacity="1"></use><g><use xlink:href="#a67S1ttjn" opacity="1" fill-opacity="0" stroke="#000000" stroke-width="1" stroke-opacity="0"></use></g></g><g><use xlink:href="#b3lin04aAV" opacity="1" fill="#3c6389" fill-opacity="1"></use><g><use xlink:href="#b3lin04aAV" opacity="1" fill-opacity="0" stroke="#000000" stroke-width="1" stroke-opacity="0"></use></g></g><g><use xlink:href="#b5dKCa910b" opacity="1" fill="#e0ac69" fill-opacity="1"></use><g><use xlink:href="#b5dKCa910b" opacity="1" fill-opacity="0" stroke="#000000" stroke-width="1" stroke-opacity="0"></use></g></g><g><use xlink:href="#e4ApbWG1JN" opacity="1" fill="#ffffff" fill-opacity="1"></use><g><use xlink:href="#e4ApbWG1JN" opacity="1" fill-opacity="0" stroke="#000000" stroke-width="1" stroke-opacity="0"></use></g></g><g><use xlink:href="#i1bxBXkHms" opacity="1" fill="#3c6389" fill-opacity="1"></use><g><use xlink:href="#i1bxBXkHms" opacity="1" fill-opacity="0" stroke="#000000" stroke-width="1" stroke-opacity="0"></use></g></g><g><use xlink:href="#akXZg6jN" opacity="1" fill="#4d3405" fill-opacity="1"></use><g><use xlink:href="#akXZg6jN" opacity="1" fill-opacity="0" stroke="#000000" stroke-width="1" stroke-opacity="0"></use></g></g><g><use xlink:href="#dbNNhoUsP" opacity="1" fill="#e0ac69" fill-opacity="1"></use><g><use xlink:href="#dbNNhoUsP" opacity="1" fill-opacity="0" stroke="#000000" stroke-width="1" stroke-opacity="0"></use></g></g><g><use xlink:href="#c201OEF1YI" opacity="1" fill="#e6e6e6" fill-opacity="1"></use><g><use xlink:href="#c201OEF1YI" opacity="1" fill-opacity="0" stroke="#000000" stroke-width="1" stroke-opacity="0"></use></g></g><g><use xlink:href="#a5DbhWBoa" opacity="1" fill="#3c6389" fill-opacity="1"></use><g><use xlink:href="#a5DbhWBoa" opacity="1" fill-opacity="0" stroke="#000000" stroke-width="1" stroke-opacity="0"></use></g></g><g><use xlink:href="#d1pvXDIJm" opacity="1" fill="#e6e6e6" fill-opacity="1"></use><g><use xlink:href="#d1pvXDIJm" opacity="1" fill-opacity="0" stroke="#000000" stroke-width="1" stroke-opacity="0"></use></g></g><g><use xlink:href="#a30hOHdkMF" opacity="1" fill="#e6e6e6" fill-opacity="1"></use><g><use xlink:href="#a30hOHdkMF" opacity="1" fill-opacity="0" stroke="#000000" stroke-width="1" stroke-opacity="0"></use></g></g><g><use xlink:href="#f3NYMVZzlg" opacity="1" fill="#e6e6e6" fill-opacity="1"></use><g><use xlink:href="#f3NYMVZzlg" opacity="1" fill-opacity="0" stroke="#000000" stroke-width="1" stroke-opacity="0"></use></g></g><g><use xlink:href="#bqM3fxBDO" opacity="1" fill="#e6e6e6" fill-opacity="1"></use><g><use xlink:href="#bqM3fxBDO" opacity="1" fill-opacity="0" stroke="#000000" stroke-width="1" stroke-opacity="0"></use></g></g><g><use xlink:href="#a258dU9dms" opacity="1" fill="#3c6389" fill-opacity="1"></use><g><use xlink:href="#a258dU9dms" opacity="1" fill-opacity="0" stroke="#000000" stroke-width="1" stroke-opacity="0"></use></g></g><g><use xlink:href="#a1fwF43ync" opacity="1" fill="#db2222" fill-opacity="1"></use><g><use xlink:href="#a1fwF43ync" opacity="1" fill-opacity="0" stroke="#000000" stroke-width="1" stroke-opacity="0"></use></g></g><g><use xlink:href="#d5LxKmG7iX" opacity="1" fill="#e6e6e6" fill-opacity="1"></use><g><use xlink:href="#d5LxKmG7iX" opacity="1" fill-opacity="0" stroke="#000000" stroke-width="1" stroke-opacity="0"></use></g></g><g><use xlink:href="#a3K2tQ4Lh" opacity="1" fill="#e6e6e6" fill-opacity="1"></use><g><use xlink:href="#a3K2tQ4Lh" opacity="1" fill-opacity="0" stroke="#000000" stroke-width="1" stroke-opacity="0"></use></g></g><g><use xlink:href="#bduTAN652" opacity="1" fill="#db2222" fill-opacity="1"></use><g><use xlink:href="#bduTAN652" opacity="1" fill-opacity="0" stroke="#000000" stroke-width="1" stroke-opacity="0"></use></g></g><g><use xlink:href="#dYAUEIGDA" opacity="1" fill="#323232" fill-opacity="1"></use><g><use xlink:href="#dYAUEIGDA" opacity="1" fill-opacity="0" stroke="#000000" stroke-width="1" stroke-opacity="0"></use></g></g><g><use xlink:href="#aLXMiFsb" opacity="1" fill="#ffffff" fill-opacity="1"></use><g><use xlink:href="#aLXMiFsb" opacity="1" fill-opacity="0" stroke="#000000" stroke-width="1" stroke-opacity="0"></use></g></g><g><use xlink:href="#f48tNYw82d" opacity="1" fill="#ffffff" fill-opacity="1"></use><g><use xlink:href="#f48tNYw82d" opacity="1" fill-opacity="0" stroke="#000000" stroke-width="1" stroke-opacity="0"></use></g></g><g><use xlink:href="#a7JGfSRUaW" opacity="1" fill="#ffffff" fill-opacity="1"></use><g><use xlink:href="#a7JGfSRUaW" opacity="1" fill-opacity="0" stroke="#000000" stroke-width="1" stroke-opacity="0"></use></g></g><g><use xlink:href="#aoSd8q5Hb" opacity="1" fill="#ffffff" fill-opacity="1"></use><g><use xlink:href="#aoSd8q5Hb" opacity="1" fill-opacity="0" stroke="#000000" stroke-width="1" stroke-opacity="0"></use></g></g><g><use xlink:href="#b6Lpk3MRab" opacity="1" fill="#ffffff" fill-opacity="1"></use><g><use xlink:href="#b6Lpk3MRab" opacity="1" fill-opacity="0" stroke="#000000" stroke-width="1" stroke-opacity="0"></use></g></g><g><use xlink:href="#eGvgNU7yf" opacity="1" fill="#ffffff" fill-opacity="1"></use><g><use xlink:href="#eGvgNU7yf" opacity="1" fill-opacity="0" stroke="#000000" stroke-width="1" stroke-opacity="0"></use></g></g><g><use xlink:href="#b5RtnDuUsd" opacity="1" fill="#ffffff" fill-opacity="1"></use><g><use xlink:href="#b5RtnDuUsd" opacity="1" fill-opacity="0" stroke="#000000" stroke-width="1" stroke-opacity="0"></use></g></g><g><use xlink:href="#cP6VLMje" opacity="1" fill="#ffffff" fill-opacity="1"></use><g><use xlink:href="#cP6VLMje" opacity="1" fill-opacity="0" stroke="#000000" stroke-width="1" stroke-opacity="0"></use></g></g><g><use xlink:href="#a1WaTay5LD" opacity="1" fill="#ffffff" fill-opacity="1"></use><g><use xlink:href="#a1WaTay5LD" opacity="1" fill-opacity="0" stroke="#000000" stroke-width="1" stroke-opacity="0"></use></g></g><g><use xlink:href="#a32q0EILih" opacity="1" fill="#ffffff" fill-opacity="1"></use><g><use xlink:href="#a32q0EILih" opacity="1" fill-opacity="0" stroke="#000000" stroke-width="1" stroke-opacity="0"></use></g></g><g><use xlink:href="#fhWsNA05N" opacity="1" fill="#ffffff" fill-opacity="1"></use><g><use xlink:href="#fhWsNA05N" opacity="1" fill-opacity="0" stroke="#000000" stroke-width="1" stroke-opacity="0"></use></g></g><g><use xlink:href="#a2Pl0zkENJ" opacity="1" fill="#ffffff" fill-opacity="1"></use><g><use xlink:href="#a2Pl0zkENJ" opacity="1" fill-opacity="0" stroke="#000000" stroke-width="1" stroke-opacity="0"></use></g></g><g><use xlink:href="#bq2tFuEzN" opacity="1" fill="#ffffff" fill-opacity="1"></use><g><use xlink:href="#bq2tFuEzN" opacity="1" fill-opacity="0" stroke="#000000" stroke-width="1" stroke-opacity="0"></use></g></g><g><use xlink:href="#bVzBqsvg3" opacity="1" fill="#ffffff" fill-opacity="1"></use><g><use xlink:href="#bVzBqsvg3" opacity="1" fill-opacity="0" stroke="#000000" stroke-width="1" stroke-opacity="0"></use></g></g><g><use xlink:href="#b9SKwIrrm" opacity="1" fill="#ffffff" fill-opacity="1"></use><g><use xlink:href="#b9SKwIrrm" opacity="1" fill-opacity="0" stroke="#000000" stroke-width="1" stroke-opacity="0"></use></g></g><g><use xlink:href="#c11hxP5PtJ" opacity="1" fill="#ffffff" fill-opacity="1"></use><g><use xlink:href="#c11hxP5PtJ" opacity="1" fill-opacity="0" stroke="#000000" stroke-width="1" stroke-opacity="0"></use></g></g><g><use xlink:href="#a2KxdSMWp" opacity="1" fill="#ffffff" fill-opacity="1"></use><g><use xlink:href="#a2KxdSMWp" opacity="1" fill-opacity="0" stroke="#000000" stroke-width="1" stroke-opacity="0"></use></g></g><g><use xlink:href="#b4QzBBkJ1" opacity="1" fill="#ffffff" fill-opacity="1"></use><g><use xlink:href="#b4QzBBkJ1" opacity="1" fill-opacity="0" stroke="#000000" stroke-width="1" stroke-opacity="0"></use></g></g><g><use xlink:href="#g1eGS0zAbv" opacity="1" fill="#ffffff" fill-opacity="1"></use><g><use xlink:href="#g1eGS0zAbv" opacity="1" fill-opacity="0" stroke="#000000" stroke-width="1" stroke-opacity="0"></use></g></g><g><use xlink:href="#a11noXBa4r" opacity="1" fill="#ffffff" fill-opacity="1"></use><g><use xlink:href="#a11noXBa4r" opacity="1" fill-opacity="0" stroke="#000000" stroke-width="1" stroke-opacity="0"></use></g></g><g><use xlink:href="#fcKb20XDl" opacity="1" fill="#1f3f5d" fill-opacity="1"></use><g><use xlink:href="#fcKb20XDl" opacity="1" fill-opacity="0" stroke="#000000" stroke-width="1" stroke-opacity="0"></use></g></g><g><use xlink:href="#b235X2eARu" opacity="1" fill="#1f3f5d" fill-opacity="1"></use><g><use xlink:href="#b235X2eARu" opacity="1" fill-opacity="0" stroke="#000000" stroke-width="1" stroke-opacity="0"></use></g></g><g><use xlink:href="#k1uCiclJSs" opacity="1" fill="#3c6389" fill-opacity="1"></use><g><use xlink:href="#k1uCiclJSs" opacity="1" fill-opacity="0" stroke="#3c6389" stroke-width="1" stroke-opacity="0"></use></g></g><g><use xlink:href="#b5W7V1nIV4" opacity="1" fill="#1f3f5d" fill-opacity="1"></use><g><use xlink:href="#b5W7V1nIV4" opacity="1" fill-opacity="0" stroke="#000000" stroke-width="1" stroke-opacity="0"></use></g></g><g><use xlink:href="#e1Lj2oM1FD" opacity="1" fill="#000000" fill-opacity="1"></use><g><use xlink:href="#e1Lj2oM1FD" opacity="1" fill-opacity="0" stroke="#000000" stroke-width="1" stroke-opacity="0"></use></g></g><g><use xlink:href="#d1yhaV9c1v" opacity="1" fill="#000000" fill-opacity="1"></use><g><use xlink:href="#d1yhaV9c1v" opacity="1" fill-opacity="0" stroke="#000000" stroke-width="1" stroke-opacity="0"></use></g></g><g><use xlink:href="#h3kWGLWkY5" opacity="1" fill="#000000" fill-opacity="1"></use><g><use xlink:href="#h3kWGLWkY5" opacity="1" fill-opacity="0" stroke="#000000" stroke-width="1" stroke-opacity="0"></use></g></g><g><use xlink:href="#g3tNHMycbt" opacity="1" fill="#000000" fill-opacity="1"></use><g><use xlink:href="#g3tNHMycbt" opacity="1" fill-opacity="0" stroke="#000000" stroke-width="1" stroke-opacity="0"></use></g></g><g><use xlink:href="#d3ReKKvYUF" opacity="1" fill="#000000" fill-opacity="1"></use><g><use xlink:href="#d3ReKKvYUF" opacity="1" fill-opacity="0" stroke="#000000" stroke-width="1" stroke-opacity="0"></use></g></g><g><use xlink:href="#b27XQGdvm" opacity="1" fill="#3c6389" fill-opacity="1"></use><g><use xlink:href="#b27XQGdvm" opacity="1" fill-opacity="0" stroke="#000000" stroke-width="1" stroke-opacity="0"></use></g></g><g><use xlink:href="#c431GlIGjl" opacity="1" fill="#3c6389" fill-opacity="1"></use><g><use xlink:href="#c431GlIGjl" opacity="1" fill-opacity="0" stroke="#000000" stroke-width="1" stroke-opacity="0"></use></g></g><g><use xlink:href="#dz2Gltkej" opacity="1" fill="#1f3f5d" fill-opacity="1"></use><g><use xlink:href="#dz2Gltkej" opacity="1" fill-opacity="0" stroke="#000000" stroke-width="1" stroke-opacity="0"></use></g></g><g><use xlink:href="#a40M04Jt5m" opacity="1" fill="#ffffff" fill-opacity="1"></use><g><use xlink:href="#a40M04Jt5m" opacity="1" fill-opacity="0" stroke="#000000" stroke-width="1" stroke-opacity="0"></use></g></g><g><use xlink:href="#b1w3JmAPNr" opacity="1" fill="#ffffff" fill-opacity="1"></use><g><use xlink:href="#b1w3JmAPNr" opacity="1" fill-opacity="0" stroke="#000000" stroke-width="1" stroke-opacity="0"></use></g></g><g><use xlink:href="#dKPMA1csD" opacity="1" fill="#ffffff" fill-opacity="1"></use><g><use xlink:href="#dKPMA1csD" opacity="1" fill-opacity="0" stroke="#000000" stroke-width="1" stroke-opacity="0"></use></g></g><g><use xlink:href="#bhSJXBsjY" opacity="1" fill="#000000" fill-opacity="1"></use><g><use xlink:href="#bhSJXBsjY" opacity="1" fill-opacity="0" stroke="#000000" stroke-width="1" stroke-opacity="0"></use></g></g><g><use xlink:href="#am2ONPg" opacity="1" fill="#ffffff" fill-opacity="1"></use><g><use xlink:href="#am2ONPg" opacity="1" fill-opacity="0" stroke="#000000" stroke-width="1" stroke-opacity="0"></use></g></g><g><use xlink:href="#g7DYPJTP9w" opacity="1" fill="#ffffff" fill-opacity="1"></use><g><use xlink:href="#g7DYPJTP9w" opacity="1" fill-opacity="0" stroke="#000000" stroke-width="1" stroke-opacity="0"></use></g></g><g><use xlink:href="#dvl85prIA" opacity="1" fill="#ffffff" fill-opacity="1"></use><g><use xlink:href="#dvl85prIA" opacity="1" fill-opacity="0" stroke="#000000" stroke-width="1" stroke-opacity="0"></use></g></g><g><use xlink:href="#cMJmlD8O8" opacity="1" fill="#db2222" fill-opacity="1"></use><g><use xlink:href="#cMJmlD8O8" opacity="1" fill-opacity="0" stroke="#000000" stroke-width="1" stroke-opacity="0"></use></g></g><g><use xlink:href="#bNrO77hIC" opacity="1" fill="#ffffff" fill-opacity="1"></use><g><use xlink:href="#bNrO77hIC" opacity="1" fill-opacity="0" stroke="#000000" stroke-width="1" stroke-opacity="0"></use></g></g><g><use xlink:href="#brko4A3o4" opacity="1" fill="#ffffff" fill-opacity="1"></use><g><use xlink:href="#brko4A3o4" opacity="1" fill-opacity="0" stroke="#000000" stroke-width="1" stroke-opacity="0"></use></g></g><g><use xlink:href="#d8ePZl40YD" opacity="1" fill="#ffffff" fill-opacity="1"></use><g><use xlink:href="#d8ePZl40YD" opacity="1" fill-opacity="0" stroke="#000000" stroke-width="1" stroke-opacity="0"></use></g></g><g><use xlink:href="#c2QRKSwFXv" opacity="1" fill="#ffffff" fill-opacity="1"></use><g><use xlink:href="#c2QRKSwFXv" opacity="1" fill-opacity="0" stroke="#000000" stroke-width="1" stroke-opacity="0"></use></g></g><g><use xlink:href="#b46nXltoa" opacity="1" fill="#ffffff" fill-opacity="1"></use><g><use xlink:href="#b46nXltoa" opacity="1" fill-opacity="0" stroke="#000000" stroke-width="1" stroke-opacity="0"></use></g></g><g><use xlink:href="#bly2G42H" opacity="1" fill="#ffffff" fill-opacity="1"></use><g><use xlink:href="#bly2G42H" opacity="1" fill-opacity="0" stroke="#000000" stroke-width="1" stroke-opacity="0"></use></g></g><g><use xlink:href="#a4aKLVi9U1" opacity="1" fill="#ffffff" fill-opacity="1"></use><g><use xlink:href="#a4aKLVi9U1" opacity="1" fill-opacity="0" stroke="#000000" stroke-width="1" stroke-opacity="0"></use></g></g><g><use xlink:href="#a1O6mvYhlM" opacity="1" fill="#ffffff" fill-opacity="1"></use><g><use xlink:href="#a1O6mvYhlM" opacity="1" fill-opacity="0" stroke="#000000" stroke-width="1" stroke-opacity="0"></use></g></g><g><use xlink:href="#d28n9bcU56" opacity="1" fill="#ffffff" fill-opacity="1"></use><g><use xlink:href="#d28n9bcU56" opacity="1" fill-opacity="0" stroke="#000000" stroke-width="1" stroke-opacity="0"></use></g></g><g><use xlink:href="#bBqRtHd8x" opacity="1" fill="#ffffff" fill-opacity="1"></use><g><use xlink:href="#bBqRtHd8x" opacity="1" fill-opacity="0" stroke="#000000" stroke-width="1" stroke-opacity="0"></use></g></g><g><use xlink:href="#a5Vp5vgBRt" opacity="1" fill="#ffffff" fill-opacity="1"></use><g><use xlink:href="#a5Vp5vgBRt" opacity="1" fill-opacity="0" stroke="#000000" stroke-width="1" stroke-opacity="0"></use></g></g><g><use xlink:href="#ghf8WGDvS" opacity="1" fill="#ffffff" fill-opacity="1"></use><g><use xlink:href="#ghf8WGDvS" opacity="1" fill-opacity="0" stroke="#000000" stroke-width="1" stroke-opacity="0"></use></g></g><g><use xlink:href="#e1cawsUcb2" opacity="1" fill="#ffffff" fill-opacity="1"></use><g><use xlink:href="#e1cawsUcb2" opacity="1" fill-opacity="0" stroke="#000000" stroke-width="1" stroke-opacity="0"></use></g></g><g><use xlink:href="#g34ey2CdSg" opacity="1" fill="#ffffff" fill-opacity="1"></use><g><use xlink:href="#g34ey2CdSg" opacity="1" fill-opacity="0" stroke="#000000" stroke-width="1" stroke-opacity="0"></use></g></g><g><use xlink:href="#eav2Y6AQ0" opacity="1" fill="#323232" fill-opacity="1"></use><g><use xlink:href="#eav2Y6AQ0" opacity="1" fill-opacity="0" stroke="#000000" stroke-width="1" stroke-opacity="0"></use></g></g><g><use xlink:href="#a5yvGgUuE2" opacity="1" fill="#ffffff" fill-opacity="1"></use><g><use xlink:href="#a5yvGgUuE2" opacity="1" fill-opacity="0" stroke="#000000" stroke-width="1" stroke-opacity="0"></use></g></g><g><use xlink:href="#cqnuo0Qij" opacity="1" fill="#ffffff" fill-opacity="1"></use><g><use xlink:href="#cqnuo0Qij" opacity="1" fill-opacity="0" stroke="#000000" stroke-width="1" stroke-opacity="0"></use></g></g><g><use xlink:href="#aqBoSEmD1" opacity="1" fill="#ffffff" fill-opacity="1"></use><g><use xlink:href="#aqBoSEmD1" opacity="1" fill-opacity="0" stroke="#000000" stroke-width="1" stroke-opacity="0"></use></g></g><g><use xlink:href="#b8J1knRfH9" opacity="1" fill="#323232" fill-opacity="1"></use><g><use xlink:href="#b8J1knRfH9" opacity="1" fill-opacity="0" stroke="#000000" stroke-width="1" stroke-opacity="0"></use></g></g><g><use xlink:href="#ewCfGJ169" opacity="1" fill="#ffffff" fill-opacity="1"></use><g><use xlink:href="#ewCfGJ169" opacity="1" fill-opacity="0" stroke="#000000" stroke-width="1" stroke-opacity="0"></use></g></g><g><use xlink:href="#eAVwyq0i" opacity="1" fill="#ffffff" fill-opacity="1"></use><g><use xlink:href="#eAVwyq0i" opacity="1" fill-opacity="0" stroke="#000000" stroke-width="1" stroke-opacity="0"></use></g></g><g><use xlink:href="#a1RSAglSZZ" opacity="1" fill="#ffffff" fill-opacity="1"></use><g><use xlink:href="#a1RSAglSZZ" opacity="1" fill-opacity="0" stroke="#000000" stroke-width="1" stroke-opacity="0"></use></g></g></g></g></svg>